<?xml version="1.0" encoding="UTF-8" standalone="no"?>
<!-- Created with Inkscape (http://www.inkscape.org/) -->

<svg
   version="1.1"
   id="svg1"
   width="621.10962"
   height="341.84137"
   viewBox="0 0 621.10963 341.84136"
   sodipodi:docname="2.svg"
   inkscape:version="1.4 (e7c3feb100, 2024-10-09)"
   xmlns:inkscape="http://www.inkscape.org/namespaces/inkscape"
   xmlns:sodipodi="http://sodipodi.sourceforge.net/DTD/sodipodi-0.dtd"
   xmlns="http://www.w3.org/2000/svg"
   xmlns:svg="http://www.w3.org/2000/svg">
  <defs
     id="defs1">
    <inkscape:path-effect
       effect="bspline"
       id="path-effect84"
       is_visible="true"
       lpeversion="1.3"
       weight="33.333333"
       steps="2"
       helper_size="0"
       apply_no_weight="true"
       apply_with_weight="true"
       only_selected="false"
       uniform="false" />
    <inkscape:path-effect
       effect="bspline"
       id="path-effect83"
       is_visible="true"
       lpeversion="1.3"
       weight="33.333333"
       steps="2"
       helper_size="0"
       apply_no_weight="true"
       apply_with_weight="true"
       only_selected="false"
       uniform="false" />
    <inkscape:path-effect
       effect="bspline"
       id="path-effect24"
       is_visible="true"
       lpeversion="1.3"
       weight="33.333333"
       steps="2"
       helper_size="0"
       apply_no_weight="true"
       apply_with_weight="true"
       only_selected="false"
       uniform="false" />
    <inkscape:path-effect
       effect="bspline"
       id="path-effect23"
       is_visible="true"
       lpeversion="1.3"
       weight="33.333333"
       steps="2"
       helper_size="0"
       apply_no_weight="true"
       apply_with_weight="true"
       only_selected="false"
       uniform="false" />
    <inkscape:path-effect
       effect="bspline"
       id="path-effect22"
       is_visible="true"
       lpeversion="1.3"
       weight="33.333333"
       steps="2"
       helper_size="0"
       apply_no_weight="true"
       apply_with_weight="true"
       only_selected="false"
       uniform="false" />
    <inkscape:path-effect
       effect="bspline"
       id="path-effect21"
       is_visible="true"
       lpeversion="1.3"
       weight="33.333333"
       steps="2"
       helper_size="0"
       apply_no_weight="true"
       apply_with_weight="true"
       only_selected="false"
       uniform="false" />
    <inkscape:path-effect
       effect="bspline"
       id="path-effect20"
       is_visible="true"
       lpeversion="1.3"
       weight="33.333333"
       steps="2"
       helper_size="0"
       apply_no_weight="true"
       apply_with_weight="true"
       only_selected="false"
       uniform="false" />
    <inkscape:path-effect
       effect="bspline"
       id="path-effect19"
       is_visible="true"
       lpeversion="1.3"
       weight="33.333333"
       steps="2"
       helper_size="0"
       apply_no_weight="true"
       apply_with_weight="true"
       only_selected="false"
       uniform="false" />
    <inkscape:path-effect
       effect="bspline"
       id="path-effect18"
       is_visible="true"
       lpeversion="1.3"
       weight="33.333333"
       steps="2"
       helper_size="0"
       apply_no_weight="true"
       apply_with_weight="true"
       only_selected="false"
       uniform="false" />
    <inkscape:path-effect
       effect="bspline"
       id="path-effect17"
       is_visible="true"
       lpeversion="1.3"
       weight="33.333333"
       steps="2"
       helper_size="0"
       apply_no_weight="true"
       apply_with_weight="true"
       only_selected="false"
       uniform="false" />
    <inkscape:path-effect
       effect="bspline"
       id="path-effect16"
       is_visible="true"
       lpeversion="1.3"
       weight="33.333333"
       steps="2"
       helper_size="0"
       apply_no_weight="true"
       apply_with_weight="true"
       only_selected="false"
       uniform="false" />
    <inkscape:path-effect
       effect="bspline"
       id="path-effect15"
       is_visible="true"
       lpeversion="1.3"
       weight="33.333333"
       steps="2"
       helper_size="0"
       apply_no_weight="true"
       apply_with_weight="true"
       only_selected="false"
       uniform="false" />
    <inkscape:path-effect
       effect="bspline"
       id="path-effect14"
       is_visible="true"
       lpeversion="1.3"
       weight="33.333333"
       steps="2"
       helper_size="0"
       apply_no_weight="true"
       apply_with_weight="true"
       only_selected="false"
       uniform="false" />
    <inkscape:path-effect
       effect="bspline"
       id="path-effect13"
       is_visible="true"
       lpeversion="1.3"
       weight="33.333333"
       steps="2"
       helper_size="0"
       apply_no_weight="true"
       apply_with_weight="true"
       only_selected="false"
       uniform="false" />
    <inkscape:path-effect
       effect="bspline"
       id="path-effect12"
       is_visible="true"
       lpeversion="1.3"
       weight="33.333333"
       steps="2"
       helper_size="0"
       apply_no_weight="true"
       apply_with_weight="true"
       only_selected="false"
       uniform="false" />
    <inkscape:path-effect
       effect="bspline"
       id="path-effect11"
       is_visible="true"
       lpeversion="1.3"
       weight="33.333333"
       steps="2"
       helper_size="0"
       apply_no_weight="true"
       apply_with_weight="true"
       only_selected="false"
       uniform="false" />
    <inkscape:path-effect
       effect="bspline"
       id="path-effect10"
       is_visible="true"
       lpeversion="1.3"
       weight="33.333333"
       steps="2"
       helper_size="0"
       apply_no_weight="true"
       apply_with_weight="true"
       only_selected="false"
       uniform="false" />
    <inkscape:path-effect
       effect="bspline"
       id="path-effect9"
       is_visible="true"
       lpeversion="1.3"
       weight="33.333333"
       steps="2"
       helper_size="0"
       apply_no_weight="true"
       apply_with_weight="true"
       only_selected="false"
       uniform="false" />
    <inkscape:path-effect
       effect="bspline"
       id="path-effect8"
       is_visible="true"
       lpeversion="1.3"
       weight="33.333333"
       steps="2"
       helper_size="0"
       apply_no_weight="true"
       apply_with_weight="true"
       only_selected="false"
       uniform="false" />
    <inkscape:path-effect
       effect="bspline"
       id="path-effect7"
       is_visible="true"
       lpeversion="1.3"
       weight="33.333333"
       steps="2"
       helper_size="0"
       apply_no_weight="true"
       apply_with_weight="true"
       only_selected="false"
       uniform="false" />
    <inkscape:path-effect
       effect="bspline"
       id="path-effect6"
       is_visible="true"
       lpeversion="1.3"
       weight="33.333333"
       steps="2"
       helper_size="0"
       apply_no_weight="true"
       apply_with_weight="true"
       only_selected="false"
       uniform="false" />
    <inkscape:path-effect
       effect="bspline"
       id="path-effect5"
       is_visible="true"
       lpeversion="1.3"
       weight="33.333333"
       steps="2"
       helper_size="0"
       apply_no_weight="true"
       apply_with_weight="true"
       only_selected="false"
       uniform="false" />
    <inkscape:path-effect
       effect="bspline"
       id="path-effect4"
       is_visible="true"
       lpeversion="1.3"
       weight="33.333333"
       steps="2"
       helper_size="0"
       apply_no_weight="true"
       apply_with_weight="true"
       only_selected="false"
       uniform="false" />
    <inkscape:path-effect
       effect="bspline"
       id="path-effect3"
       is_visible="true"
       lpeversion="1.3"
       weight="33.333333"
       steps="2"
       helper_size="0"
       apply_no_weight="true"
       apply_with_weight="true"
       only_selected="false"
       uniform="false" />
    <inkscape:path-effect
       effect="bspline"
       id="path-effect2"
       is_visible="true"
       lpeversion="1.3"
       weight="33.333333"
       steps="2"
       helper_size="0"
       apply_no_weight="true"
       apply_with_weight="true"
       only_selected="false"
       uniform="false" />
    <inkscape:path-effect
       effect="bspline"
       id="path-effect84-6"
       is_visible="true"
       lpeversion="1.3"
       weight="33.333333"
       steps="2"
       helper_size="0"
       apply_no_weight="true"
       apply_with_weight="true"
       only_selected="false"
       uniform="false" />
  </defs>
  <sodipodi:namedview
     id="namedview1"
     pagecolor="#ffffff"
     bordercolor="#000000"
     borderopacity="0.25"
     inkscape:showpageshadow="2"
     inkscape:pageopacity="0.0"
     inkscape:pagecheckerboard="0"
     inkscape:deskcolor="#d1d1d1"
     showgrid="false"
     inkscape:zoom="1.23"
     inkscape:cx="185.36585"
     inkscape:cy="173.98374"
     inkscape:window-width="1920"
     inkscape:window-height="1011"
     inkscape:window-x="0"
     inkscape:window-y="0"
     inkscape:window-maximized="1"
     inkscape:current-layer="layer1" />
  <g
     inkscape:groupmode="layer"
     id="layer1"
     inkscape:label="Layer 1"
     transform="translate(-13.729476,224.72657)">
    <path
       id="path3"
       style="display:inline;opacity:1;fill:#ff0000;fill-opacity:1;stroke:none;stroke-width:3.77953;stroke-linecap:round;stroke-dasharray:none;stroke-opacity:1"
       d="m 190.52635,-49.894539 c -0.58139,0.0067 -1.36643,0.178287 -2.13476,0.369141 -1.53668,0.381707 -2.99898,0.839876 -4.26954,1.589844 -1.27055,0.749967 -2.34998,1.792756 -2.28906,2.626953 0.0609,0.834197 1.26079,1.461167 2.42383,1.648437 1.16304,0.187271 2.28793,-0.06536 3.76367,-1.28125 1.47574,-1.215893 3.30264,-3.394802 3.41016,-4.332031 0.0538,-0.468614 -0.3229,-0.627814 -0.9043,-0.621094 z m -44.05469,2.794922 c -0.57667,-0.0036 -1.16318,0.01877 -1.75586,0.05469 -1.58047,0.09579 -3.20931,0.288322 -2.82617,1.15039 0.38314,0.862068 2.77874,2.394893 4.55078,3.113281 1.77205,0.718389 2.92096,0.622532 3.97461,0.0957 1.05365,-0.526829 2.0119,-1.484647 1.82032,-2.298829 -0.19159,-0.814181 -1.53196,-1.485064 -2.96875,-1.820312 -0.898,-0.20953 -1.8338,-0.288842 -2.79493,-0.294922 z" />
    <path
       id="path2"
       style="display:inline;fill:#ff9955;stroke-width:1"
       d="M 364.11424 -209.89454 C 354.51482 -209.82164 343.45391 -209.33861 332.09666 -208.45509 C 321.57858 -207.63685 307.84874 -206.9659 301.5869 -206.9629 C 279.22991 -206.9529 250.47161 -200.09372 216.98143 -186.78712 C 206.93886 -182.79692 188.64382 -174.62922 184.43065 -172.25391 C 183.5657 -171.76626 179.55068 -169.61223 175.51073 -167.4668 C 162.74442 -160.68716 146.58065 -146.9209 140.87596 -137.97071 C 139.88871 -136.42179 138.38415 -134.38445 137.53221 -133.44337 C 135.1638 -130.8271 128.27049 -116.50115 128.27049 -114.19532 C 128.27049 -113.07298 127.89549 -112.1543 127.43651 -112.1543 C 126.97754 -112.1543 125.85238 -109.3919 124.93846 -106.01563 C 124.02455 -102.63936 122.99216 -99.701776 122.64354 -99.486336 C 122.29495 -99.270896 120.316 -99.932434 118.2451 -100.95704 C 116.17421 -101.98164 113.15196 -102.98814 111.53026 -103.19337 C 108.81079 -103.53754 108.43592 -103.23457 106.69237 -99.292976 C 104.59346 -94.548037 104.2604 -91.501961 105.8408 -91.501961 C 106.41222 -91.501961 106.6509 -90.90361 106.3701 -90.171883 C 106.08932 -89.440147 106.47787 -88.604354 107.23338 -88.314461 C 107.98888 -88.02455 109.44309 -85.982614 110.4658 -83.777351 C 111.48851 -81.572088 113.37801 -77.906371 114.66502 -75.630867 C 115.91507 -73.420717 116.4942 -71.876592 116.74705 -70.589851 C 116.75005 -70.583151 116.75382 -70.57703 116.75682 -70.57032 C 117.66311 -68.669327 118.68128 -66.460075 118.65916 -63.498054 C 118.6583 -63.382103 118.65114 -63.262686 118.64744 -63.144539 C 118.64244 -63.126819 118.6591 -63.123636 118.6533 -63.105476 C 118.65263 -63.103476 118.64844 -63.101717 118.64744 -63.099617 C 117.39682 -55.35473 112.62632 -42.345467 108.22948 -37.058601 C 106.54012 -35.250171 103.95061 -32.080852 102.47557 -30.015633 C 101.00054 -27.950412 98.821094 -25.41543 97.633773 -24.38282 C 96.446447 -23.350209 95.336476 -21.359306 95.166976 -19.958992 C 94.997457 -18.558673 94.561928 -17.115663 94.198226 -16.751961 C 93.834484 -16.388236 93.536117 -14.894511 93.536117 -13.431648 C 93.536117 -11.968786 93.128025 -10.771492 92.627914 -10.771492 C 92.127802 -10.771492 91.961604 -10.137747 92.258773 -9.3632888 C 92.555971 -8.5888309 92.330283 -7.9550856 91.758773 -7.9550856 C 91.187211 -7.9550856 90.71971 -7.476287 90.71971 -6.8906325 C 90.71971 -3.5674573 81.971503 11.930708 76.848617 17.681633 C 72.61042 22.439403 70.967605 25.080847 70.430648 28.007805 C 70.033785 30.17096 69.670754 32.151997 69.622054 32.410149 C 69.304285 34.091004 66.540892 37.973853 64.065414 40.218742 C 62.461709 41.673062 55.979016 45.423337 49.659163 48.552727 C 37.320301 54.662537 30.053386 60.762151 31.286117 63.974602 C 31.629026 64.868197 31.514377 65.336777 31.026351 65.035149 C 30.5389 64.733891 30.025428 66.793857 29.866195 69.697258 C 29.620803 74.172639 29.793195 74.820048 31.10057 74.318352 C 31.936574 73.997551 35.011897 74.576278 37.934554 75.603508 C 44.747478 77.998073 45.462481 77.959775 48.149398 75.060539 C 50.816091 72.183151 54.579085 72.219309 54.579085 75.123039 C 54.579085 77.808273 56.268526 78.540703 59.702132 77.343742 C 61.419545 76.745064 66.086801 76.4811 70.68846 76.722649 C 78.253341 77.119705 78.765616 77.023195 80.118148 74.958977 C 81.873915 72.279359 83.756384 72.164547 85.088851 74.654289 C 86.481332 77.256156 88.235664 77.006519 92.03807 73.667961 C 95.26479 70.834859 97.939603 65.196815 96.874007 63.472649 C 96.570725 62.98193 96.723889 62.332149 97.213851 62.029289 C 97.703842 61.726458 98.603302 59.057398 99.213851 56.097649 C 100.09656 51.818517 101.0795 49.99453 104.01073 47.195305 C 106.03819 45.25916 108.29312 43.675774 109.02244 43.675774 C 109.82895 43.675774 110.56907 42.29729 110.91112 40.156242 C 111.22044 38.220097 111.87056 36.001013 112.35448 35.226555 C 112.83841 34.452097 114.28087 31.849575 115.56151 29.443352 C 119.21827 22.572603 127.89956 14.616372 136.21385 10.513664 C 146.10265 5.6341541 147.59757 5.6287607 150.22166 10.472649 C 154.98301 19.261742 160.7888 23.629492 166.48534 22.705071 C 168.87521 22.317249 170.13484 22.645601 171.50291 24.013664 C 172.70863 25.219383 174.61586 25.839836 177.11424 25.839836 C 184.94913 25.839836 189.53717 22.10954 193.85448 12.228508 C 197.04802 4.9194448 197.23035 4.7187425 200.69627 4.7187425 C 204.45736 4.7187425 206.75155 3.3508316 213.81151 -3.10157 C 220.15462 -8.8988155 224.0433 -14.340287 225.8994 -20.017586 C 227.53401 -25.017415 230.64612 -27.481547 238.41698 -29.925789 C 243.908 -31.652901 256.67154 -32.377679 260.63182 -31.187508 C 264.08965 -30.148337 266.33904 -26.375004 266.80565 -20.833992 C 267.03262 -18.138462 267.39405 -15.089258 267.60838 -14.056648 C 267.8227 -13.024037 268.03002 -11.625081 268.06932 -10.949226 C 268.10882 -10.273587 268.56473 -9.9816761 269.08104 -10.300789 C 269.61348 -10.629833 270.01854 -9.8409764 270.01854 -8.4785231 C 270.01854 -7.1572921 270.44169 -6.0761794 270.95799 -6.0761794 C 271.4743 -6.0761794 271.89744 -5.2318367 271.89744 -4.1992263 C 271.89744 -3.1666157 272.38884 -2.3222731 272.99119 -2.3222731 C 273.5936 -2.3222731 273.82515 -2.0605272 273.50487 -1.7402419 C 272.84301 -1.0783855 278.28505 10.191064 279.48924 10.652336 C 279.9215 10.817924 281.18379 12.42519 282.29588 14.224602 C 284.25259 17.390598 284.27036 17.669138 282.83299 22.841789 C 282.01605 25.781696 281.27852 29.876172 281.19432 31.941399 C 281.02568 36.0787 279.55582 41.519606 278.03807 43.621086 C 277.36738 44.54935 277.36639 44.791417 278.03416 44.392571 C 278.5698 44.072661 277.14607 47.689253 274.87205 52.427727 C 267.94588 66.860066 266.65056 72.003986 269.6533 73.156242 C 270.63067 73.531291 271.02136 73.317791 270.75487 72.552727 C 270.42382 71.602197 273.47482 67.480946 273.88963 68.318352 C 273.95353 68.447428 274.147 70.66456 274.31932 73.246086 C 274.57277 77.043652 275.13396 78.345744 277.25487 80.062492 C 279.73655 82.071272 282.83044 82.5959 282.32323 80.921867 C 282.19432 80.496391 283.38308 78.911051 284.96385 77.400383 C 288.49588 74.024985 292.28447 73.714694 292.71776 76.765617 C 292.96846 78.530795 293.68869 78.926741 297.10252 79.171867 C 299.34921 79.33319 302.41263 79.039274 303.90916 78.517571 C 306.03612 77.77608 306.62987 77.845181 306.62987 78.83593 C 306.62987 80.118332 311.2283 82.164055 314.11034 82.164055 C 314.97793 82.164055 316.27749 80.800965 317.02049 79.113274 C 318.43752 75.894604 320.33146 75.059408 324.07127 75.998039 C 325.64464 76.392931 326.34276 77.226571 326.34276 78.708977 C 326.34276 79.886045 326.86684 81.370739 327.50487 82.009758 C 328.42687 82.931738 328.89067 82.863699 329.76073 81.673821 C 331.03227 79.934887 333.09862 69.140259 332.38182 67.980461 C 332.11515 67.548977 331.70159 65.675226 331.46385 63.818352 C 330.90165 59.427211 328.78708 55.071744 323.20213 46.800774 L 318.65721 40.070305 L 318.91112 32.720696 C 319.05087 28.678231 319.12287 22.10711 319.07127 18.119133 L 318.97752 10.869133 L 322.42479 9.9101487 C 324.32154 9.3833473 328.23278 8.9501281 331.11619 8.9472581 C 335.84076 8.9425381 336.62922 8.6420252 339.09471 5.8925706 C 343.66508 0.79582824 349.08943 -6.8858139 359.86229 -23.521492 C 372.37712 -42.84715 375.35779 -48.901491 375.91112 -56.111336 C 376.30961 -61.303959 376.18778 -61.68382 373.25877 -64.298836 C 371.56955 -65.806969 368.73181 -67.520719 366.95409 -68.107429 C 363.86491 -69.12695 363.74972 -69.325851 364.36034 -72.593758 C 365.38395 -78.071944 369.62467 -82.349089 378.00291 -86.353523 C 382.93611 -88.711366 383.84426 -88.875494 385.87791 -87.787117 C 387.92198 -86.693166 388.66288 -86.843152 392.57323 -89.134773 C 396.33794 -91.341246 397.75644 -91.655785 402.42088 -91.318367 C 408.56003 -90.874304 410.8911 -89.575905 425.29784 -78.593758 C 430.20831 -74.850544 434.61462 -71.78907 435.0908 -71.78907 C 435.56696 -71.78907 437.45578 -70.13144 439.28612 -68.105476 C 444.59495 -62.229195 453.69837 -57.298091 463.57323 -54.951179 C 475.47143 -52.123386 481.71224 -49.813929 485.05174 -47.003914 C 487.05348 -45.319556 488.87821 -44.662794 491.30174 -44.753914 C 494.25905 -44.86509 495.26667 -44.285022 498.70409 -40.488289 C 501.06818 -37.877052 503.32652 -34.097038 504.26854 -31.175789 C 505.14051 -28.471693 506.52 -25.731327 507.33494 -25.085945 C 508.14988 -24.440564 508.38213 -23.91407 507.85057 -23.91407 C 507.25002 -23.91407 507.5464 -20.977136 508.63182 -16.167976 C 510.49122 -7.9284135 511.31589 16.21996 509.98729 23.537102 L 509.29588 27.333977 L 515.21385 29.388664 C 522.54996 31.936273 532.90186 33.547973 539.49315 33.167961 C 544.25454 32.893462 544.52493 32.738067 545.2744 29.830071 C 546.13944 26.473853 547.05095 26.052079 548.82323 28.187492 C 550.04453 29.659116 552.56782 29.94919 556.03416 29.019524 C 557.50135 28.625987 558.06737 27.766911 558.03807 25.982414 C 558.01407 24.613383 558.12927 23.070985 558.29588 22.55468 C 558.78907 21.025079 557.32362 10.890534 556.35643 9.1445237 C 554.77037 6.2813471 551.63963 -0.77642054 551.63963 -1.4902419 C 551.63963 -2.4111134 543.01808 -15.323568 540.48924 -18.189461 C 539.39444 -19.430148 538.49705 -20.784832 538.49705 -21.199226 C 538.49705 -21.613602 537.47695 -23.45666 536.22948 -25.294929 C 533.7389 -28.965003 529.11034 -42.807788 529.11034 -46.585945 C 529.11034 -47.896586 528.28263 -49.716866 527.27049 -50.63282 C 526.25836 -51.548775 525.48544 -52.564889 525.55174 -52.890633 C 525.61814 -53.216385 525.34289 -55.065524 524.94041 -57.000008 C 524.32225 -59.973129 523.24589 -61.170111 517.97752 -64.730476 C 510.86278 -69.538616 506.5857 -73.38751 501.73143 -79.353523 C 497.94304 -84.009616 490.22109 -96.76826 489.16307 -100.1211 C 487.40494 -105.69263 479.04909 -121.17415 476.5869 -123.41993 C 475.37206 -124.528 464.59859 -141.74767 461.61229 -147.35548 C 460.78767 -148.90401 459.88356 -150.38403 459.60252 -150.64259 C 458.25391 -151.88251 455.08063 -158.24141 454.50682 -160.85352 C 453.70004 -164.52665 454.28682 -164.55581 463.99705 -161.33985 C 477.89664 -156.73643 491.00472 -148.92896 500.67869 -139.4922 C 503.69474 -136.55013 510.28383 -128.60157 515.32127 -121.82813 C 524.22261 -109.8593 527.49219 -106.5662 533.33494 -103.68751 C 534.88386 -102.92437 536.36195 -102.0382 536.6201 -101.7168 C 536.87826 -101.39539 541.94822 -97.964099 547.88573 -94.091804 C 568.21121 -80.836042 579.54866 -78.68163 594.90135 -85.162117 C 599.33835 -87.035026 609.86839 -96.957538 613.61424 -102.79493 C 616.7075 -107.61535 621.6188 -120.40365 620.72166 -121.30079 C 620.43939 -121.58304 618.1147 -122.01388 615.55565 -122.25977 C 609.98137 -122.79539 605.00235 -120.67078 596.17869 -113.9922 C 586.48183 -106.65264 580.45457 -104.15649 572.76268 -104.29102 C 560.86343 -104.49912 546.4676 -112.91709 535.31541 -126.19141 C 526.76504 -136.3688 522.54002 -141.8157 522.54002 -142.65626 C 522.54002 -143.86959 512.09699 -158.15235 511.20994 -158.15235 C 510.72896 -158.15235 510.44219 -158.55898 510.57127 -159.0547 C 510.70034 -159.55041 508.15047 -162.6893 504.90526 -166.03126 C 493.3328 -177.94879 475.63154 -187.25286 448.84862 -195.4961 C 432.20806 -200.61772 406.01587 -206.31764 387.36229 -208.87501 C 381.85208 -209.63047 373.71367 -209.96743 364.11424 -209.89454 z M 190.52635 -49.894539 C 191.10775 -49.901259 191.48445 -49.742059 191.43065 -49.273445 C 191.32313 -48.336216 189.49623 -46.157307 188.02049 -44.941414 C 186.54475 -43.725524 185.41986 -43.472893 184.25682 -43.660164 C 183.09378 -43.847434 181.89389 -44.474404 181.83299 -45.308601 C 181.77207 -46.142798 182.8515 -47.185587 184.12205 -47.935554 C 185.39261 -48.685522 186.85491 -49.143691 188.39159 -49.525398 C 189.15992 -49.716252 189.94496 -49.887839 190.52635 -49.894539 z M 146.47166 -47.099617 C 147.43279 -47.093537 148.36859 -47.014225 149.26659 -46.804695 C 150.70338 -46.469447 152.04375 -45.798564 152.23534 -44.984383 C 152.42692 -44.1702 151.46867 -43.212383 150.41502 -42.685554 C 149.36137 -42.158722 148.21246 -42.062869 146.44041 -42.781258 C 144.66837 -43.499645 142.27277 -45.032471 141.88963 -45.894539 C 141.50649 -46.756607 143.13533 -46.949139 144.7158 -47.044929 C 145.30848 -47.080849 145.89499 -47.103217 146.47166 -47.099617 z M 336.97557 -42.396492 C 337.80103 -42.392787 338.50844 -42.211268 338.85643 -41.863289 C 339.25413 -41.465598 339.18047 -40.850306 337.77049 -37.921883 C 336.36051 -34.993458 333.61376 -29.752361 331.9326 -26.552742 C 330.25144 -23.353122 329.63776 -22.195781 328.64354 -21.400398 C 327.64932 -20.605015 326.27453 -20.170349 325.20799 -20.296883 C 324.14146 -20.423415 323.38195 -21.111468 323.16502 -22.593758 C 322.9481 -24.076046 323.27362 -26.353028 324.64744 -29.769539 C 326.02127 -33.186049 328.44387 -37.742419 330.08885 -39.929695 C 331.73383 -42.116971 332.60098 -41.936013 333.57713 -41.990242 C 334.55328 -42.04447 335.63809 -42.332493 336.61424 -42.386726 C 336.73626 -42.393505 336.85765 -42.397021 336.97557 -42.396492 z " />
    <path
       id="path1"
       style="display:inline;fill:#000000;stroke-width:1"
       d="M 364.11424 -209.89454 C 354.51482 -209.82164 343.45391 -209.33861 332.09666 -208.45509 C 321.57858 -207.63685 307.84874 -206.9659 301.5869 -206.9629 C 279.22991 -206.9529 250.47161 -200.09372 216.98143 -186.78712 C 206.93886 -182.79692 188.64382 -174.62922 184.43065 -172.25391 C 183.5657 -171.76626 179.55068 -169.61223 175.51073 -167.4668 C 162.74442 -160.68716 146.58065 -146.9209 140.87596 -137.97071 C 139.88871 -136.42179 138.38415 -134.38445 137.53221 -133.44337 C 135.1638 -130.8271 128.27049 -116.50115 128.27049 -114.19532 C 128.27049 -113.07298 127.89549 -112.1543 127.43651 -112.1543 C 126.97754 -112.1543 125.85238 -109.3919 124.93846 -106.01563 C 124.02455 -102.63936 122.99216 -99.701776 122.64354 -99.486336 C 122.29495 -99.270896 120.316 -99.932435 118.2451 -100.95704 C 116.17421 -101.98164 113.15196 -102.98814 111.53026 -103.19337 C 108.81079 -103.53754 108.43592 -103.23457 106.69237 -99.292976 C 104.59346 -94.548037 104.2604 -91.501961 105.8408 -91.501961 C 106.41222 -91.501961 106.6509 -90.903611 106.3701 -90.171883 C 106.08932 -89.440148 106.47787 -88.604354 107.23338 -88.314461 C 107.98888 -88.02455 109.44309 -85.982614 110.4658 -83.777351 C 111.48851 -81.572088 113.37801 -77.906371 114.66502 -75.630867 C 115.91507 -73.420717 116.4942 -71.876592 116.74705 -70.589851 C 116.75005 -70.583151 116.75382 -70.57703 116.75682 -70.57032 C 117.66311 -68.669327 118.68128 -66.460075 118.65916 -63.498054 C 118.6583 -63.382103 118.65114 -63.262686 118.64744 -63.144539 C 118.64244 -63.126819 118.6591 -63.123636 118.6533 -63.105476 C 118.65263 -63.103476 118.64844 -63.101717 118.64744 -63.099617 C 117.39682 -55.35473 112.62632 -42.345467 108.22948 -37.058601 C 106.54012 -35.250171 103.95061 -32.080853 102.47557 -30.015633 C 101.00054 -27.950412 98.821094 -25.41543 97.633773 -24.38282 C 96.446447 -23.350209 95.336476 -21.359306 95.166976 -19.958992 C 94.997457 -18.558673 94.561928 -17.115663 94.198226 -16.751961 C 93.834484 -16.388236 93.536117 -14.894511 93.536117 -13.431648 C 93.536117 -11.968786 93.128026 -10.771492 92.627914 -10.771492 C 92.127802 -10.771492 91.961604 -10.137747 92.258773 -9.3632888 C 92.555971 -8.5888309 92.330283 -7.9550856 91.758773 -7.9550856 C 91.187211 -7.9550856 90.71971 -7.476287 90.71971 -6.8906325 C 90.71971 -3.5674573 81.971503 11.930708 76.848617 17.681633 C 72.61042 22.439403 70.967605 25.080847 70.430648 28.007805 C 70.033785 30.17096 69.670754 32.151997 69.622054 32.410149 C 69.304285 34.091004 66.540893 37.973853 64.065414 40.218742 C 62.46171 41.673062 55.979015 45.423337 49.659163 48.552727 C 37.320301 54.662537 30.053386 60.762151 31.286117 63.974602 C 31.629026 64.868197 31.514377 65.336777 31.026351 65.035149 C 30.5389 64.733891 30.025428 66.793857 29.866195 69.697258 C 29.620803 74.172639 29.793195 74.820048 31.10057 74.318352 C 31.936574 73.997551 35.011897 74.576278 37.934554 75.603508 C 44.747478 77.998073 45.462481 77.959775 48.149398 75.060539 C 50.816091 72.183151 54.579085 72.219309 54.579085 75.123039 C 54.579085 77.808273 56.268526 78.540702 59.702132 77.343742 C 61.419545 76.745064 66.086801 76.4811 70.68846 76.722649 C 78.253341 77.119705 78.765616 77.023195 80.118148 74.958977 C 81.873915 72.279359 83.756384 72.164547 85.088851 74.654289 C 86.481332 77.256156 88.235664 77.006519 92.03807 73.667961 C 95.26479 70.834859 97.939603 65.196815 96.874007 63.472649 C 96.570725 62.98193 96.723889 62.332149 97.213851 62.029289 C 97.703842 61.726458 98.603302 59.057398 99.213851 56.097649 C 100.09656 51.818517 101.0795 49.99453 104.01073 47.195305 C 106.03819 45.25916 108.29312 43.675774 109.02244 43.675774 C 109.82895 43.675774 110.56907 42.29729 110.91112 40.156242 C 111.22044 38.220097 111.87056 36.001013 112.35448 35.226555 C 112.83841 34.452097 114.28087 31.849575 115.56151 29.443352 C 119.21827 22.572603 127.89956 14.616372 136.21385 10.513664 C 146.10265 5.6341537 147.59757 5.628761 150.22166 10.472649 C 154.98301 19.261742 160.7888 23.629492 166.48534 22.705071 C 168.87521 22.317249 170.13484 22.645601 171.50291 24.013664 C 172.70863 25.219383 174.61586 25.839836 177.11424 25.839836 C 184.94913 25.839836 189.53717 22.10954 193.85448 12.228508 C 197.04802 4.9194447 197.23035 4.7187425 200.69627 4.7187425 C 204.45736 4.7187425 206.75155 3.3508316 213.81151 -3.10157 C 220.15462 -8.8988155 224.0433 -14.340287 225.8994 -20.017586 C 227.53401 -25.017415 230.64612 -27.481547 238.41698 -29.925789 C 243.908 -31.652901 256.67154 -32.377679 260.63182 -31.187508 C 264.08965 -30.148338 266.33904 -26.375004 266.80565 -20.833992 C 267.03262 -18.138462 267.39405 -15.089258 267.60838 -14.056648 C 267.8227 -13.024037 268.03002 -11.625081 268.06932 -10.949226 C 268.10882 -10.273587 268.56473 -9.9816763 269.08104 -10.300789 C 269.61348 -10.629833 270.01854 -9.8409764 270.01854 -8.4785231 C 270.01854 -7.1572921 270.44169 -6.0761794 270.95799 -6.0761794 C 271.4743 -6.0761794 271.89744 -5.2318368 271.89744 -4.1992263 C 271.89744 -3.1666157 272.38884 -2.3222731 272.99119 -2.3222731 C 273.5936 -2.3222731 273.82515 -2.0605272 273.50487 -1.7402419 C 272.84301 -1.0783855 278.28505 10.191064 279.48924 10.652336 C 279.9215 10.817924 281.18379 12.42519 282.29588 14.224602 C 284.25259 17.390598 284.27036 17.669138 282.83299 22.841789 C 282.01605 25.781696 281.27852 29.876172 281.19432 31.941399 C 281.02568 36.0787 279.55582 41.519606 278.03807 43.621086 C 277.36738 44.54935 277.36639 44.791417 278.03416 44.392571 C 278.5698 44.072661 277.14607 47.689253 274.87205 52.427727 C 267.94588 66.860066 266.65056 72.003985 269.6533 73.156242 C 270.63067 73.531291 271.02136 73.317791 270.75487 72.552727 C 270.42382 71.602197 273.47482 67.480946 273.88963 68.318352 C 273.95353 68.447428 274.147 70.66456 274.31932 73.246086 C 274.57277 77.043652 275.13396 78.345743 277.25487 80.062492 C 279.73655 82.071272 282.83044 82.5959 282.32323 80.921867 C 282.19432 80.496391 283.38308 78.911051 284.96385 77.400383 C 288.49588 74.024985 292.28447 73.714693 292.71776 76.765617 C 292.96846 78.530795 293.68869 78.92674 297.10252 79.171867 C 299.34921 79.33319 302.41263 79.039274 303.90916 78.517571 C 306.03612 77.77608 306.62987 77.845181 306.62987 78.83593 C 306.62987 80.118332 311.2283 82.164055 314.11034 82.164055 C 314.97793 82.164055 316.27749 80.800965 317.02049 79.113274 C 318.43752 75.894604 320.33146 75.059408 324.07127 75.998039 C 325.64464 76.392931 326.34276 77.226571 326.34276 78.708977 C 326.34276 79.886045 326.86684 81.370739 327.50487 82.009758 C 328.42687 82.931738 328.89067 82.863699 329.76073 81.673821 C 331.03227 79.934887 333.09862 69.140259 332.38182 67.980461 C 332.11515 67.548977 331.70159 65.675226 331.46385 63.818352 C 330.90165 59.427211 328.78708 55.071744 323.20213 46.800774 L 318.65721 40.070305 L 318.91112 32.720696 C 319.05087 28.678231 319.12287 22.10711 319.07127 18.119133 L 318.97752 10.869133 L 322.42479 9.9101487 C 324.32154 9.3833473 328.23278 8.9501281 331.11619 8.9472581 C 335.84076 8.9425381 336.62922 8.6420252 339.09471 5.8925706 C 343.66508 0.79582822 349.08943 -6.885814 359.86229 -23.521492 C 372.37712 -42.84715 375.35779 -48.901491 375.91112 -56.111336 C 376.30961 -61.303959 376.18778 -61.68382 373.25877 -64.298836 C 371.56955 -65.806969 368.73181 -67.520719 366.95409 -68.107429 C 363.86491 -69.12695 363.74972 -69.325851 364.36034 -72.593758 C 365.38395 -78.071944 369.62467 -82.349089 378.00291 -86.353523 C 382.93611 -88.711366 383.84426 -88.875494 385.87791 -87.787117 C 387.92198 -86.693166 388.66288 -86.843152 392.57323 -89.134773 C 396.33794 -91.341246 397.75644 -91.655785 402.42088 -91.318367 C 408.56003 -90.874304 410.8911 -89.575905 425.29784 -78.593758 C 430.20831 -74.850545 434.61462 -71.78907 435.0908 -71.78907 C 435.56696 -71.78907 437.45578 -70.13144 439.28612 -68.105476 C 444.59495 -62.229195 453.69837 -57.298091 463.57323 -54.951179 C 475.47143 -52.123386 481.71224 -49.813929 485.05174 -47.003914 C 487.05348 -45.319556 488.87821 -44.662794 491.30174 -44.753914 C 494.25905 -44.86509 495.26667 -44.285022 498.70409 -40.488289 C 501.06818 -37.877052 503.32652 -34.097038 504.26854 -31.175789 C 505.14051 -28.471693 506.52 -25.731327 507.33494 -25.085945 C 508.14988 -24.440564 508.38213 -23.91407 507.85057 -23.91407 C 507.25002 -23.91407 507.5464 -20.977136 508.63182 -16.167976 C 510.49122 -7.9284133 511.31589 16.21996 509.98729 23.537102 L 509.29588 27.333977 L 515.21385 29.388664 C 522.54996 31.936273 532.90186 33.547973 539.49315 33.167961 C 544.25454 32.893462 544.52493 32.738067 545.2744 29.830071 C 546.13944 26.473853 547.05095 26.052078 548.82323 28.187492 C 550.04453 29.659115 552.56782 29.94919 556.03416 29.019524 C 557.50135 28.625987 558.06737 27.766911 558.03807 25.982414 C 558.01407 24.613383 558.12927 23.070985 558.29588 22.55468 C 558.78907 21.025079 557.32362 10.890534 556.35643 9.1445237 C 554.77037 6.2813471 551.63963 -0.77642056 551.63963 -1.4902419 C 551.63963 -2.4111134 543.01808 -15.323568 540.48924 -18.189461 C 539.39444 -19.430148 538.49705 -20.784832 538.49705 -21.199226 C 538.49705 -21.613602 537.47695 -23.45666 536.22948 -25.294929 C 533.7389 -28.965003 529.11034 -42.807788 529.11034 -46.585945 C 529.11034 -47.896586 528.28263 -49.716866 527.27049 -50.63282 C 526.25836 -51.548775 525.48544 -52.56489 525.55174 -52.890633 C 525.61814 -53.216385 525.34289 -55.065524 524.94041 -57.000008 C 524.32225 -59.973129 523.24589 -61.170111 517.97752 -64.730476 C 510.86278 -69.538616 506.5857 -73.38751 501.73143 -79.353523 C 497.94304 -84.009616 490.22109 -96.768261 489.16307 -100.1211 C 487.40494 -105.69263 479.04909 -121.17415 476.5869 -123.41993 C 475.37206 -124.528 464.59859 -141.74767 461.61229 -147.35548 C 460.78767 -148.90401 459.88356 -150.38403 459.60252 -150.64259 C 458.25391 -151.88251 455.08063 -158.24141 454.50682 -160.85352 C 453.70004 -164.52665 454.28682 -164.55581 463.99705 -161.33985 C 477.89664 -156.73643 491.00472 -148.92896 500.67869 -139.4922 C 503.69474 -136.55013 510.28383 -128.60157 515.32127 -121.82813 C 524.22261 -109.8593 527.49219 -106.5662 533.33494 -103.68751 C 534.88386 -102.92437 536.36195 -102.0382 536.6201 -101.7168 C 536.87826 -101.39539 541.94822 -97.964099 547.88573 -94.091804 C 568.21121 -80.836042 579.54866 -78.68163 594.90135 -85.162117 C 599.33835 -87.035026 609.86839 -96.957541 613.61424 -102.79493 C 616.7075 -107.61535 621.6188 -120.40365 620.72166 -121.30079 C 620.43939 -121.58304 618.1147 -122.01388 615.55565 -122.25977 C 609.98137 -122.79539 605.00235 -120.67078 596.17869 -113.9922 C 586.48183 -106.65264 580.45457 -104.15649 572.76268 -104.29102 C 560.86343 -104.49912 546.4676 -112.91709 535.31541 -126.19141 C 526.76504 -136.3688 522.54002 -141.8157 522.54002 -142.65626 C 522.54002 -143.86959 512.09699 -158.15235 511.20994 -158.15235 C 510.72896 -158.15235 510.44219 -158.55898 510.57127 -159.0547 C 510.70034 -159.55041 508.15047 -162.6893 504.90526 -166.03126 C 493.3328 -177.94879 475.63154 -187.25286 448.84862 -195.4961 C 432.20806 -200.61772 406.01587 -206.31764 387.36229 -208.87501 C 381.85208 -209.63047 373.71367 -209.96743 364.11424 -209.89454 z M 354.78612 -203.40821 C 357.8558 -203.42961 360.6468 -203.09377 360.88377 -202.38282 C 361.09924 -201.73641 363.86976 -198.0076 367.04198 -194.09766 C 378.06769 -180.50779 381.32171 -175.04884 378.39549 -175.04884 C 377.14298 -175.04884 377.14386 -174.74655 378.39549 -172.32618 C 381.45487 -166.40999 385.58377 -153.53537 387.44237 -144.1211 C 388.82629 -137.1112 389.551 -128.8504 389.91893 -115.86915 L 390.43846 -97.521492 L 387.90526 -95.861336 C 386.51206 -94.948456 384.45064 -94.333155 383.32323 -94.494148 C 381.27617 -94.786453 381.27291 -94.820866 381.19041 -120.13282 C 381.12361 -140.63815 380.78823 -146.97579 379.43651 -153.31641 C 376.2322 -168.34715 375.35807 -167.62098 375.44237 -149.99805 C 375.53047 -131.59291 374.03714 -122.61832 368.86619 -110.45118 C 365.61257 -102.79546 359.24654 -94.318367 356.75096 -94.318367 C 355.2598 -94.318367 353.81014 -99.165632 352.64159 -108.0586 C 352.15739 -111.74345 350.90104 -117.02401 349.84862 -119.79298 C 348.79619 -122.56196 347.89908 -125.88307 347.85448 -127.17384 C 347.77828 -129.37743 347.72177 -129.34939 346.92479 -126.70509 C 345.47179 -121.88419 348.31925 -94.381939 351.63963 -81.175789 L 353.41112 -74.134773 L 348.40721 -69.207039 C 341.12221 -62.029827 340.11219 -62.406967 340.85252 -72.023445 C 341.43923 -79.644351 340.83442 -84.696919 337.20409 -102.55274 C 336.44083 -106.3068 335.57914 -109.76343 335.28807 -110.23438 C 334.997 -110.70534 334.36224 -112.91379 333.87791 -115.14259 C 333.39358 -117.37138 332.34902 -121.30715 331.55565 -123.88868 C 330.16913 -128.40023 330.13968 -128.03662 330.80955 -114.50196 C 331.77677 -94.959249 331.5917 -75.411395 330.42088 -73.330086 C 329.54748 -71.777468 328.98562 -72.210419 325.30955 -77.277351 C 323.03797 -80.408396 319.11604 -85.765281 316.59276 -89.179695 C 312.04315 -95.336049 312.01547 -95.417739 313.2119 -99.042976 C 314.81911 -103.91287 313.92047 -112.64534 310.90721 -121.43946 C 309.59969 -125.25543 308.25364 -131.67976 307.91698 -135.7168 C 307.36321 -142.35702 307.14621 -142.97218 305.64354 -142.16798 C 302.8698 -140.68352 302.57595 -134.99727 304.79588 -125.73634 C 307.20338 -115.69288 308.26403 -103.70509 306.7451 -103.70509 C 305.43374 -103.70509 300.68333 -112.93517 296.15916 -124.26954 C 293.20937 -131.65961 292.59792 -134.37806 292.41698 -140.94337 C 292.23958 -147.38016 291.87129 -149.08142 290.36229 -150.41993 C 288.55311 -152.02469 288.53372 -151.95909 289.14159 -146.41798 C 289.48143 -143.32014 290.07263 -138.67332 290.45604 -136.0918 C 291.50098 -129.05681 291.02893 -127.48099 287.67674 -126.81055 C 285.14908 -126.30502 284.02236 -126.88265 278.72557 -131.4043 C 269.98212 -138.86827 262.57007 -143.02813 239.28612 -153.53907 C 232.83153 -156.45284 231.53026 -156.0655 231.53026 -151.22657 C 231.53026 -148.96642 232.05871 -146.68189 232.70409 -146.14845 C 233.34947 -145.615 238.94593 -142.54767 245.14159 -139.33204 C 267.92646 -127.50642 276.90062 -121.49137 283.78416 -113.4297 C 286.33043 -110.44763 291.6493 -105.96554 295.89354 -103.22657 C 305.97992 -96.717442 311.06747 -89.862934 321.69041 -68.468758 C 326.31451 -59.156002 330.09862 -51.077173 330.09862 -50.515633 C 330.09862 -49.954097 327.03519 -51.120382 323.29198 -53.107429 C 315.43123 -57.28022 314.73926 -57.438259 315.54784 -54.890633 C 316.22978 -52.742022 315.31354 -52.571513 310.38377 -53.927742 C 305.29477 -55.327786 299.9634 -55.805998 300.58104 -54.806648 C 300.88181 -54.319972 301.52033 -54.165847 302.00096 -54.462898 C 302.48156 -54.759956 302.87401 -54.596871 302.87401 -54.10157 C 302.87401 -53.606292 304.88054 -52.712179 307.33299 -52.115242 C 309.78544 -51.518305 312.58843 -50.43887 313.56151 -49.714851 C 315.63524 -48.171902 315.46066 -45.664429 312.25487 -30.953133 C 310.88545 -24.668952 310.36385 -19.784311 310.67674 -16.173836 L 311.14549 -10.779304 L 307.12987 -9.0039138 C 301.85223 -6.6693574 301.00912 -5.1923236 303.88768 -3.3261794 C 308.03353 -0.63845848 310.38377 2.2572592 310.38377 4.6757737 C 310.38377 6.5759473 309.95204 7.0330137 308.27244 6.9042894 C 307.11075 6.8152504 302.56925 6.4973775 298.18065 6.1992112 C 289.15129 5.5856998 287.85448 5.0490984 287.85448 1.9238206 C 287.85448 0.70575092 287.55779 -1.0640075 287.19432 -2.0097731 C 286.61747 -3.5107898 286.46191 -3.4313902 285.97752 -1.38282 C 285.54042 0.46578746 284.83441 0.96288312 282.6494 0.96288312 C 279.94626 0.96288312 279.86124 0.82078866 279.32323 -4.6679763 C 279.01957 -7.7658076 278.44635 -12.039509 278.04979 -14.16407 C 277.37787 -17.763844 277.48871 -18.066064 279.66893 -18.613289 C 280.95568 -18.936243 286.78173 -18.572269 292.61619 -17.802742 C 305.08924 -16.157653 304.75096 -16.173472 304.75096 -17.22657 C 304.75096 -18.75268 295.57328 -22.01348 288.63768 -22.951179 C 271.34355 -25.289361 269.82345 -25.769714 265.97752 -30.126961 C 263.43135 -33.011646 261.41232 -34.350907 258.93846 -34.794929 C 252.13528 -36.016032 252.47236 -37.176488 259.45799 -36.582039 C 263.20121 -36.263514 266.26463 -36.212365 266.26463 -36.468758 C 266.26463 -36.725139 264.57399 -37.884211 262.50877 -39.044929 C 258.17642 -41.479849 257.97046 -42.185887 260.86619 -44.66407 L 262.97752 -46.470711 L 260.16112 -45.896492 C 258.6122 -45.580349 255.86662 -44.941848 254.05955 -44.478523 C 249.85952 -43.401919 245.86608 -43.392237 245.20799 -44.457039 C 244.92555 -44.914034 245.15059 -46.592224 245.70604 -48.185554 C 246.483 -50.414338 247.39877 -51.188821 249.6826 -51.541023 C 262.60421 -53.533873 266.39131 -54.31406 272.43846 -56.234383 C 280.24757 -58.714236 288.16885 -63.009707 287.35643 -64.324226 C 287.04769 -64.823769 285.31659 -64.442695 283.34471 -63.439461 C 276.99038 -60.206563 266.52964 -57.636849 259.46971 -57.576179 C 253.01017 -57.520699 244.15145 -59.089148 243.31932 -60.435554 C 243.10856 -60.77658 242.68818 -64.557147 242.38573 -68.835945 C 241.82134 -76.821286 239.76926 -82.676144 237.9326 -81.541023 C 237.2465 -81.116996 237.06686 -77.908117 237.39354 -71.888679 L 237.88377 -62.871101 L 233.62205 -60.234383 C 229.05128 -57.406597 227.81932 -57.821691 227.79002 -62.199226 C 227.78202 -63.379083 227.08565 -65.397772 226.24315 -66.683601 C 224.87374 -68.77361 224.86142 -69.191564 226.12987 -70.638679 C 226.91025 -71.528983 229.66175 -76.74328 232.24315 -82.224617 C 234.82454 -87.705948 237.44948 -92.506606 238.07713 -92.894539 C 238.71688 -93.289929 240.32494 -92.782997 241.73534 -91.740242 C 246.24289 -88.407662 254.7179 -86.520426 266.26463 -86.277351 C 277.72092 -86.036208 283.28795 -86.947457 277.99705 -88.197273 C 276.44814 -88.563158 270.95698 -90.341921 265.79393 -92.150398 C 260.63088 -93.958874 252.60473 -96.410702 247.95799 -97.597664 C 240.07307 -99.611783 239.477 -99.933922 239.03221 -102.42384 C 238.77008 -103.89119 237.91705 -105.21475 237.13573 -105.36524 C 236.09146 -105.56635 235.24892 -103.82788 233.95604 -98.804695 C 231.13441 -87.841845 227.79537 -81.175789 225.12596 -81.175789 C 223.23767 -81.175789 223.12164 -84.344499 224.90526 -87.162117 C 230.34337 -95.752797 230.67298 -97.803248 226.20409 -95.232429 C 223.16738 -93.485492 219.81466 -87.514178 218.02635 -80.666023 C 217.2645 -77.748552 216.39456 -75.114311 216.09276 -74.812508 C 215.79095 -74.51069 214.15674 -75.607306 212.4619 -77.250008 C 209.10954 -80.49924 207.59842 -80.952528 206.82518 -78.937508 C 206.02488 -76.851945 208.55211 -74.109683 215.57713 -69.439461 C 219.18845 -67.038659 222.14354 -64.473097 222.14354 -63.738289 C 222.14354 -61.82062 220.91129 -62.090564 219.52244 -64.314461 C 218.86506 -65.367119 217.91834 -65.976644 217.41893 -65.667976 C 216.22036 -64.927342 216.24445 -61.462898 217.44823 -61.462898 C 217.96454 -61.462898 218.38768 -60.911463 218.38768 -60.238289 C 218.38768 -59.565109 219.8215 -57.625588 221.57323 -55.927742 C 224.5241 -53.067651 224.66661 -52.66618 223.52049 -50.457039 C 222.64459 -48.768786 222.54792 -47.378124 223.18846 -45.693367 C 224.03125 -43.476651 223.15406 -41.815899 221.11229 -41.763679 C 220.80368 -41.755779 218.2687 -39.412543 215.47948 -36.556648 C 212.69026 -33.700746 209.47423 -31.123324 208.33104 -30.830086 C 205.62692 -30.136395 205.32082 -28.884565 205.35252 -18.597664 C 205.38102 -9.386561 204.04327 -5.1292125 200.5283 -3.2480544 C 199.04978 -2.4567638 198.52777 -2.5534986 198.08885 -3.6972731 C 197.22431 -5.9502297 198.52402 -11.264345 200.57909 -13.876961 C 202.69106 -16.561889 202.41761 -17.853592 198.51463 -23.615242 C 195.34457 -28.294933 190.71557 -31.812926 188.72948 -31.050789 C 187.54192 -30.595085 187.70683 -29.969495 189.70213 -27.353523 C 192.87684 -23.191276 192.73356 -21.864116 188.88768 -19.792976 C 187.11925 -18.840609 184.47897 -16.790203 183.02049 -15.238289 L 180.36815 -12.417976 L 185.06346 -13.027351 L 189.75682 -13.638679 L 187.54002 -11.734383 C 186.32113 -10.687661 184.73775 -9.8320387 184.02049 -9.8320388 C 182.11933 -9.8320388 182.40539 -9.0700438 185.21385 -6.6543044 C 188.25327 -4.0399047 187.45297 -1.8743009 183.78612 -2.7871169 C 180.89484 -3.506864 171.7542 -8.5833052 170.92088 -9.9316481 C 170.60714 -10.439287 171.9843 -13.052627 173.98143 -15.740242 C 177.36855 -20.298408 177.55124 -20.86923 176.69823 -24.210945 C 175.93295 -27.209226 175.46882 -27.703576 173.85252 -27.248054 C 172.79025 -26.948685 170.11365 -26.43852 167.90526 -26.115242 C 161.92763 -25.240234 161.86508 -23.686906 167.81737 -23.935554 C 170.59043 -24.051374 173.37416 -24.093374 174.00291 -24.029304 C 175.52976 -23.873738 174.41316 -21.007448 171.54393 -17.712898 L 169.29198 -15.125008 L 167.30174 -17.621101 C 166.20704 -18.993986 163.31195 -21.385026 160.8701 -22.933601 C 158.42825 -24.482177 156.43065 -26.26627 156.43065 -26.898445 C 156.43065 -27.530619 157.78045 -29.441964 159.43065 -31.144539 C 161.08083 -32.847108 162.01136 -34.238289 161.49705 -34.238289 C 160.98273 -34.238289 160.05412 -33.732856 159.43455 -33.113289 C 158.56911 -32.248048 158.05299 -32.24289 157.20213 -33.093758 C 156.35128 -33.944623 156.3876 -34.748849 157.36034 -36.566414 C 158.32457 -38.368102 159.37156 -38.933601 161.75291 -38.933601 C 164.59566 -38.933601 164.87987 -39.187674 164.87987 -41.72657 C 164.87987 -44.27128 164.65007 -44.473433 162.29784 -44.00782 C 160.27057 -43.606533 158.87707 -44.21755 155.80565 -46.853523 L 151.89549 -50.208992 L 144.80565 -49.156258 C 140.90718 -48.576411 136.59876 -48.38145 135.23143 -48.724617 C 133.06221 -49.269055 132.81622 -49.703127 133.29979 -52.121101 C 133.91634 -55.203837 133.70584 -55.372672 131.19823 -53.806648 C 130.16094 -53.158832 129.64276 -52.026317 129.91112 -51.000008 C 130.15851 -50.054029 130.72252 -49.503886 131.16502 -49.777351 C 131.60749 -50.050817 132.21392 -49.30159 132.51268 -48.111336 C 133.17146 -45.486516 137.6707 -42.277576 144.13768 -39.82032 C 150.23385 -37.503758 152.39781 -37.515365 153.14549 -39.871101 C 153.47323 -40.903712 154.18386 -41.750008 154.72557 -41.750008 C 155.33176 -41.750007 155.43841 -40.936712 155.00096 -39.636726 C 153.93224 -36.461055 153.32037 -26.436421 154.22948 -26.994148 C 154.66563 -27.261723 155.05034 -26.129739 155.08494 -24.47657 C 155.18532 -19.66095 156.0898 -18.281258 159.14549 -18.281258 C 162.20244 -18.281258 167.69627 -14.272254 167.69627 -12.041023 C 167.69627 -11.282207 168.11943 -10.92113 168.63573 -11.240242 C 169.80721 -11.96419 169.81098 -11.51578 168.65916 -8.4863356 C 167.1596 -4.5421859 162.46331 -2.3301894 155.58104 -2.3261794 C 150.74751 -2.3233594 148.99803 -2.7487353 146.66307 -4.5000075 C 142.44378 -7.6645714 140.99001 -8.4582216 141.79588 -7.1543044 C 142.88896 -5.3856656 139.80175 -4.8443561 137.56346 -6.4121169 C 136.35172 -7.2608406 134.48077 -7.6490662 133.01268 -7.3554763 C 131.01928 -6.9567948 130.31113 -7.3193163 129.46971 -9.1660231 C 128.89102 -10.436116 127.11578 -11.92834 125.52635 -12.482429 C 122.27202 -13.616893 122.08232 -13.262906 123.98924 -9.6074294 C 126.00833 -5.7368591 126.1738 -2.8888914 124.3994 -2.5351638 C 121.42681 -1.9426155 117.69769 -16.248499 119.23143 -22.359383 C 119.98817 -25.374499 123.15463 -26.462934 125.36034 -24.466804 C 126.26752 -23.645808 127.52788 -22.974617 128.16307 -22.974617 C 128.79825 -22.974617 129.09618 -22.616249 128.82518 -22.177742 C 128.05359 -20.929286 132.64082 -18.893421 134.54198 -19.640633 C 135.98074 -20.206099 135.71 -20.590019 132.8076 -22.093758 C 129.14777 -23.989912 127.5538 -27.687854 128.75877 -31.484383 C 129.80912 -34.793753 128.41179 -40.035879 126.57323 -39.685554 C 125.69912 -39.519011 124.84953 -38.437669 124.68455 -37.281258 C 124.37334 -35.09998 121.69823 -34.274032 121.69823 -36.359383 C 121.69823 -37.009646 120.85388 -38.069974 119.82127 -38.714851 C 117.45968 -40.189694 117.45968 -42.296477 119.82127 -49.015633 C 122.07106 -55.416691 122.09894 -55.830086 120.29002 -55.830086 C 118.04797 -55.830086 118.63002 -57.675565 122.2744 -62.123054 L 125.66698 -66.263679 L 124.07518 -70.433601 C 122.5998 -74.296831 120.75877 -76.020286 120.75877 -73.53907 C 120.75877 -72.430404 118.33064 -75.436643 116.29979 -79.058601 C 114.73827 -81.843498 114.80939 -84.931648 116.43455 -84.931648 C 119.91818 -84.931648 118.85179 -89.912184 114.66307 -93.207039 C 111.7112 -95.529134 111.70107 -96.19532 114.61424 -96.19532 C 117.47669 -96.19532 121.2577 -94.583969 125.15721 -91.703133 C 126.80163 -90.488289 129.33661 -89.174295 130.79002 -88.781258 C 133.03316 -88.174675 133.4326 -87.580389 133.4326 -84.855476 C 133.4326 -83.089888 133.10074 -80.626629 132.69432 -79.380867 C 132.28785 -78.135105 132.33954 -76.73174 132.80955 -76.261726 C 133.3232 -75.748079 133.91088 -76.387722 134.28221 -77.867195 C 134.7253 -79.632601 136.08616 -80.837342 139.09471 -82.126961 C 142.85501 -83.738825 143.75806 -84.77152 143.3994 -87.042976 C 143.3383 -87.430205 144.27227 -87.748054 145.47362 -87.748054 C 147.40164 -87.748054 147.6069 -88.105876 147.22166 -90.798836 C 146.9816 -92.476828 146.45942 -94.06076 146.06151 -94.32032 C 145.17102 -94.901135 147.78766 -105.69469 149.13377 -106.9922 C 149.80279 -107.6371 149.9297 -106.9748 149.53807 -104.87891 C 149.22453 -103.20092 149.30177 -101.82813 149.70994 -101.82813 C 150.11812 -101.82813 154.28545 -105.53219 158.96971 -110.0586 C 167.08796 -117.90329 172.56951 -121.54071 178.25682 -122.85743 C 181.54964 -123.61978 181.57506 -122.44132 178.39354 -116.46485 C 175.82279 -111.63566 174.93655 -107.73732 176.22752 -106.93946 C 176.64995 -106.67838 178.75172 -108.69579 180.89744 -111.42188 C 183.04315 -114.14797 185.13986 -116.50802 185.5576 -116.66602 C 185.97532 -116.82401 188.35772 -115.3897 190.85252 -113.47852 C 197.30691 -108.53404 206.18455 -105.03965 206.18455 -107.44337 C 206.18455 -110.07893 196.1918 -116.33576 190.45994 -117.28907 C 188.26564 -117.65402 186.47166 -118.2865 186.47166 -118.69532 C 186.47166 -119.51555 193.86629 -129.44787 196.5244 -132.19727 C 200.12699 -135.92358 205.90604 -139.11911 210.03416 -139.66798 C 216.86668 -140.57642 220.67403 -138.99143 226.94237 -132.62501 C 230.0231 -129.49608 232.82471 -127.21633 233.16893 -127.56055 C 234.22079 -128.61241 230.33746 -134.81138 227.00291 -137.40235 C 225.27233 -138.74704 221.10727 -142.36571 217.74705 -145.44337 L 211.63768 -151.03907 L 219.47166 -158.29298 C 228.67683 -166.81552 234.02287 -169.10605 242.4033 -168.1211 C 252.03853 -166.98867 260.19096 -162.69178 269.65135 -153.76173 C 274.31079 -149.36349 278.46776 -142.82191 278.46776 -139.88477 C 278.46776 -139.08974 278.88896 -138.43946 279.40526 -138.43946 C 282.12361 -138.43946 279.06998 -146.8335 273.27244 -155.29884 C 270.4688 -159.39262 268.06148 -163.24584 267.92284 -163.86134 C 267.48402 -165.80973 272.54537 -166.49836 277.99119 -165.23243 C 282.39539 -164.20865 283.16112 -164.22794 283.16112 -165.36329 C 283.16112 -167.73504 276.93071 -169.3941 263.08299 -170.70704 C 251.93838 -171.76369 249.01058 -172.35948 246.62987 -174.0547 C 242.93925 -176.68264 242.97525 -178.05125 246.78416 -179.8711 C 248.46215 -180.67282 252.58247 -182.76284 255.93846 -184.51563 C 261.48204 -187.41096 262.76925 -187.70218 270.01854 -187.70118 C 276.5721 -187.70018 278.73611 -187.30768 282.12791 -185.50782 C 287.89224 -182.44897 301.93651 -168.12418 301.93651 -165.30274 C 301.93651 -164.81243 302.20969 -164.6853 302.54588 -165.02149 C 302.88206 -165.35767 303.71979 -164.90138 304.40721 -164.00587 C 305.44841 -162.64997 305.44967 -163.09247 304.41112 -166.66016 C 302.59771 -172.88917 302.15223 -173.49223 291.5283 -184.09376 C 286.20121 -189.40962 282.0352 -193.92623 282.26854 -194.13087 C 282.50187 -194.33555 285.7746 -194.77764 289.54198 -195.11329 L 296.39159 -195.72266 L 300.3369 -191.71876 C 304.99115 -186.99505 310.44089 -176.85043 312.56932 -168.94727 C 314.47679 -161.86456 316.674 -147.16558 317.51659 -135.85743 C 318.16264 -127.18696 319.0774 -125.48363 321.51268 -128.41798 C 322.75968 -129.92051 323.17758 -138.67206 322.20409 -142.89259 C 321.5949 -145.53371 321.79339 -146.0603 323.68846 -146.84571 C 324.8906 -147.34393 328.19645 -149.46613 331.03612 -151.56251 C 337.79056 -156.54893 344.77412 -159.94327 347.05174 -159.34766 C 348.05312 -159.08579 348.87205 -158.49909 348.87205 -158.04298 C 348.87205 -157.58688 350.15954 -157.2129 351.73338 -157.2129 C 354.0243 -157.2129 354.83163 -156.6526 355.78026 -154.39649 L 356.9658 -151.57813 L 359.13573 -154.51173 C 361.21715 -157.32703 361.50488 -157.42245 366.29588 -156.85938 C 374.39877 -155.90705 373.90789 -159.22319 365.77049 -160.40821 C 363.44712 -160.74656 360.91354 -161.41756 360.14159 -161.89845 C 358.9263 -162.65547 358.96583 -162.93829 360.43651 -164.01368 C 362.06177 -165.20211 362.04809 -165.36665 360.11034 -167.83009 C 357.4284 -171.23963 353.91765 -177.91071 352.76463 -181.78712 C 352.25418 -183.50323 350.35301 -188.603 348.54002 -193.1211 C 345.38986 -200.97152 345.32274 -201.3776 347.01854 -202.28516 C 348.36766 -203.00719 351.71643 -203.38678 354.78612 -203.40821 z M 369.86619 -203.12891 C 371.49228 -203.16251 373.38179 -203.11991 375.14354 -202.99415 C 381.80302 -202.51766 386.17724 -200.55614 390.73534 -195.99805 C 393.36612 -193.36727 393.54052 -192.34565 391.54784 -191.23048 C 390.69093 -190.75108 390.34211 -189.79361 390.69237 -188.88087 C 391.40753 -187.01721 397.44991 -183.29356 398.0869 -184.32423 C 398.33586 -184.72705 397.94494 -187.3137 397.21776 -190.07032 C 396.49058 -192.82695 396.11296 -195.43257 396.37791 -195.86134 C 397.21019 -197.20799 402.22077 -196.71479 408.75487 -194.64454 C 412.21882 -193.54704 415.39907 -192.33626 415.82127 -191.95313 C 416.24349 -191.56999 415.9276 -188.04966 415.11815 -184.13087 C 412.26206 -170.30367 413.72465 -154.7403 418.28026 -150.4961 C 419.34516 -149.504 420.21776 -147.88829 420.21776 -146.90626 C 420.21776 -144.52353 421.66665 -143.71004 421.83885 -145.9961 C 421.91315 -146.98277 421.57294 -148.03783 421.08104 -148.3418 C 420.58915 -148.6458 420.41886 -149.27019 420.70213 -149.72852 C 420.98539 -150.18685 420.38922 -153.8533 419.37791 -157.87696 C 416.79927 -168.13667 416.13741 -174.88669 416.90721 -183.10157 C 417.37587 -188.10291 417.98928 -190.35529 418.98729 -190.73829 C 421.52505 -191.71212 433.22927 -185.24024 437.83494 -180.31641 C 441.84737 -176.02678 442.02244 -175.64063 440.24315 -174.98243 C 437.85097 -174.09751 437.1269 -170.15918 437.1533 -158.15235 C 437.175 -148.2097 439.04349 -133.88864 441.26659 -126.62305 C 442.71451 -121.89095 447.50633 -114.2577 449.93455 -112.81251 C 451.89792 -111.64399 451.46217 -109.2394 447.88182 -101.49024 C 444.48324 -94.134375 443.47899 -93.176051 441.97948 -95.855476 C 441.31887 -97.035943 440.85257 -96.21859 439.97557 -92.335945 C 439.3472 -89.553981 438.4075 -85.882564 437.88573 -84.177742 C 436.9376 -81.079676 436.93355 -81.078013 431.39549 -81.361336 C 428.34797 -81.517242 425.85352 -81.866898 425.85252 -82.136726 C 425.85152 -82.406542 424.37922 -83.41744 422.58299 -84.384773 C 419.33774 -86.132454 417.21037 -89.7176 419.05369 -90.332039 C 419.58393 -90.508703 419.82616 -91.382841 419.59276 -92.275398 C 419.35828 -93.172074 420.26571 -95.147245 421.6201 -96.689461 C 426.34995 -102.07519 427.13424 -105.1071 427.08494 -117.78712 C 427.04604 -127.762 426.68568 -130.57562 424.67479 -136.56055 L 422.30955 -143.60157 L 422.32518 -132.3379 C 422.35138 -113.06687 422.44669 -113.74566 419.74705 -114.26173 C 417.45961 -114.69899 417.40135 -114.56991 417.40135 -109.20704 C 417.40135 -106.18081 417.09367 -103.70509 416.71776 -103.70509 C 415.7661 -103.70509 409.12165 -111.07192 409.62205 -111.57227 C 410.03517 -111.98538 407.30392 -117.78712 406.69627 -117.78712 C 406.51443 -117.78712 406.95503 -114.97666 407.67479 -111.54298 C 408.39451 -108.10929 408.74599 -105.0634 408.45604 -104.77345 C 408.16606 -104.48346 407.10189 -104.76235 406.09276 -105.39259 C 403.77188 -106.84186 403.77705 -105.93127 406.12205 -99.759773 C 408.48494 -93.54114 407.81375 -92.810792 400.76854 -93.927742 C 396.84453 -94.549854 395.37736 -95.17753 395.47166 -96.19532 C 395.54346 -96.969778 396.4931 -102.81264 397.58299 -109.17774 C 400.28905 -124.98148 400.21516 -133.58059 397.31932 -139.75391 C 391.54673 -152.05991 390.77733 -154.15721 385.92674 -170.82618 C 384.76838 -174.80685 383.28017 -177.42208 380.85057 -179.74415 C 378.95982 -181.55121 376.9069 -184.08424 376.29002 -185.37501 C 373.7084 -190.77675 371.22901 -194.40118 367.53026 -198.16993 L 363.60643 -202.16602 L 366.17284 -202.8086 C 366.87825 -202.98567 368.24011 -203.0953 369.86619 -203.12891 z M 326.47948 -201.25391 C 327.49501 -201.19141 328.90833 -200.91221 330.73924 -200.45118 C 334.89686 -199.40428 343.11003 -194.37647 343.35838 -192.72657 C 343.61457 -191.02455 343.84735 -190.42851 345.39159 -187.53516 C 346.27348 -185.88281 346.9951 -183.66373 346.9951 -182.60548 C 346.9951 -181.54723 347.34806 -180.68165 347.7783 -180.68165 C 348.20855 -180.68165 348.5873 -180.15321 348.6201 -179.50782 C 348.6529 -178.86244 349.32601 -175.38387 350.11619 -171.77735 C 351.08842 -167.33985 351.24744 -164.85359 350.61034 -164.08595 C 350.09254 -163.46204 346.84929 -162.0261 343.4033 -160.89454 C 335.31576 -158.23881 325.84034 -153.9854 325.00682 -152.63673 C 322.45879 -148.51395 319.74905 -155.56314 318.37401 -169.88673 C 317.06156 -183.55835 314.6074 -191.41469 310.48534 -195.14259 C 307.64887 -197.70781 308.0298 -198.77279 311.51268 -198.00782 C 314.89098 -197.26582 324.08784 -191.46853 324.79002 -189.63868 C 325.0416 -188.98308 327.35193 -185.53748 329.92284 -181.98243 C 332.49374 -178.42738 334.88444 -174.14675 335.23729 -172.46876 C 335.59014 -170.79077 336.26786 -169.41798 336.74315 -169.41798 C 338.11963 -169.41798 337.74728 -175.24114 336.04784 -180.2793 C 334.24682 -185.61857 333.10388 -187.58446 327.49315 -195.00391 C 323.96004 -199.67598 323.43288 -201.44157 326.47948 -201.25391 z M 254.70409 -190.67774 C 255.66025 -189.72158 246.46377 -183.57428 240.67284 -181.29884 C 233.77978 -178.59034 232.46971 -178.33497 232.46971 -179.69923 C 232.46971 -181.67282 253.38285 -191.99898 254.70409 -190.67774 z M 441.57518 -186.85352 C 444.39232 -186.77872 448.78765 -183.46616 452.11229 -178.72657 C 454.18913 -175.76584 455.88963 -172.88167 455.88963 -172.31837 C 455.88963 -171.74746 454.33029 -171.32805 452.36815 -171.36915 C 447.95685 -171.46205 446.50096 -172.03732 446.50096 -173.68751 C 446.50096 -174.40098 445.32225 -176.37241 443.88182 -178.06837 C 440.10353 -182.51695 438.72057 -186.00969 440.47166 -186.68165 C 440.80196 -186.80839 441.17273 -186.86421 441.57518 -186.85352 z M 461.78612 -183.41602 C 463.79603 -183.42502 466.70455 -182.67347 470.12791 -181.23243 C 473.46817 -179.82635 473.59157 -179.59995 474.22557 -173.6797 C 474.58463 -170.32298 474.63202 -166.93486 474.33104 -166.1504 C 473.04526 -162.79984 468.15062 -166.1381 465.69823 -172.03907 C 464.90282 -173.95285 462.98087 -177.10745 461.42674 -179.04884 C 459.05877 -182.00677 458.84305 -182.67158 460.0908 -183.1504 C 460.54708 -183.32549 461.11614 -183.41291 461.78612 -183.41602 z M 218.06346 -180.62305 C 220.28304 -180.64395 220.15905 -179.71882 217.2158 -178.28907 C 215.27966 -177.34854 213.69432 -176.07656 213.69432 -175.46095 C 213.69432 -173.1797 216.45011 -171.98301 220.29393 -172.59766 C 223.3381 -173.08444 224.18664 -172.89279 224.68065 -171.60548 C 225.12399 -170.45016 223.9211 -168.80078 220.32127 -165.62696 L 215.34862 -161.2422 L 203.95994 -160.59766 C 191.92247 -159.91618 179.02809 -157.59066 172.97948 -155.00977 C 165.47739 -151.80868 164.73695 -153.72347 171.11424 -159.83399 C 179.15273 -167.53622 192.22256 -171.96686 204.13377 -171.0293 C 209.08924 -170.63924 209.97542 -170.78836 209.53221 -171.94337 C 209.24056 -172.70329 209.00096 -173.52703 209.00096 -173.77345 C 209.00096 -174.01982 208.60854 -173.9787 208.12791 -173.68165 C 207.64728 -173.38458 207.01103 -173.53213 206.7158 -174.00977 C 205.87407 -175.37171 211.52978 -179.60332 215.08104 -180.26954 C 216.32437 -180.50279 217.3236 -180.6161 218.06346 -180.62305 z M 398.39159 -179.7422 C 397.55268 -179.7432 397.47612 -173.58319 398.2783 -170.58985 C 399.16023 -167.29911 399.35725 -168.03065 399.22166 -174.10938 C 399.15256 -177.20661 398.77882 -179.74158 398.39159 -179.7422 z M 483.69432 -174.11134 C 485.82667 -174.11134 487.58144 -173.2535 489.62401 -171.21095 C 494.7907 -166.04426 494.83322 -165.3236 490.20994 -161.53516 C 487.93926 -159.67451 485.83046 -158.15235 485.52244 -158.15235 C 485.21453 -158.15235 483.51594 -159.52513 481.74901 -161.20313 L 478.53612 -164.25391 L 479.60252 -169.1836 C 480.61953 -173.89025 480.80255 -174.11134 483.69432 -174.11134 z M 444.84471 -158.13087 C 446.09971 -158.29618 447.79011 -156.57997 449.60448 -153.10743 C 451.05324 -150.33465 456.01785 -143.89262 460.63573 -138.79298 C 465.25362 -133.69334 470.12569 -127.9638 471.46385 -126.06055 L 473.89744 -122.59962 L 471.14354 -118.55079 C 466.30183 -111.43047 464.72018 -103.69744 467.75682 -101.99805 C 468.80656 -101.41093 469.14593 -100.34522 468.82323 -98.658211 C 468.45009 -96.706296 468.60725 -96.394246 469.56541 -97.189461 C 470.2345 -97.744718 470.74317 -98.910203 470.69627 -99.779304 C 470.64847 -100.6484 471.35886 -104.66426 472.27635 -108.70509 C 474.0129 -116.3532 475.98434 -118.73237 477.88963 -115.47852 C 478.4389 -114.54048 480.27129 -111.82436 481.9619 -109.44337 C 488.15164 -100.72608 488.95987 -97.972911 488.7158 -86.455086 C 488.46434 -74.582377 488.6542 -72.19114 489.58104 -75.542976 C 490.38595 -78.453793 493.4138 -79.035173 496.66893 -76.902351 C 499.24195 -75.216433 499.76183 -72.854637 497.95799 -71.050789 C 497.31731 -70.410119 496.81936 -67.045157 496.78416 -63.119148 C 496.72776 -56.77246 496.86886 -56.279023 498.80369 -56.003914 C 500.37221 -55.780876 501.02947 -56.298669 501.48534 -58.115242 C 502.25517 -61.182606 504.94439 -61.259205 506.9033 -58.269539 C 507.71542 -57.030102 510.87507 -54.056166 513.92479 -51.660164 C 516.97451 -49.264155 520.2617 -45.834117 521.22948 -44.037117 L 522.98729 -40.769539 L 520.1826 -38.47657 C 515.84399 -34.93173 513.39496 -35.379763 511.24901 -40.107429 C 510.25295 -42.301727 509.42868 -45.257903 509.41698 -46.677742 C 509.39378 -49.586618 507.83784 -50.053065 506.09666 -47.671883 C 505.0065 -46.180923 504.63345 -46.180675 500.0283 -47.667976 C 497.33043 -48.539305 494.72036 -49.001893 494.22752 -48.697273 C 493.73463 -48.392356 492.26305 -48.412211 490.95604 -48.740242 C 488.88477 -49.260103 488.7399 -49.534026 489.83494 -50.880867 C 490.94206 -52.242639 490.86843 -52.335092 489.21385 -51.660164 C 488.18124 -51.238947 486.49255 -50.723662 485.45994 -50.513679 C 483.37906 -50.09049 469.81598 -56.759869 469.23924 -58.490242 C 468.76635 -59.908939 472.25844 -59.897798 476.2158 -58.466804 C 479.85223 -57.151909 480.84303 -57.748654 479.42284 -60.402351 C 478.80321 -61.560048 477.00623 -62.570774 474.88768 -62.953133 C 472.95782 -63.301462 470.61536 -63.980739 469.6826 -64.462898 C 468.08857 -65.286857 468.13187 -65.591341 470.42479 -69.503914 C 473.11462 -74.093762 472.89096 -74.527966 469.17674 -71.912117 C 463.50858 -67.920174 458.5797 -66.122722 451.91502 -65.619148 C 445.18317 -65.110493 445.0469 -65.147253 441.53026 -68.291023 L 437.9658 -71.47657 L 440.71385 -71.072273 C 443.68284 -70.636541 445.6845 -72.380602 443.27635 -73.304695 C 441.18252 -74.108171 441.36988 -74.794772 445.5576 -81.636726 C 455.79189 -98.357541 460.23753 -109.49423 461.17674 -120.75587 C 461.61249 -125.98055 461.50581 -128.21419 460.8369 -127.80079 C 460.29819 -127.46784 459.56179 -125.60592 459.20213 -123.66407 C 458.16072 -118.03775 456.00138 -114.27217 453.54588 -113.80274 C 451.61143 -113.43296 451.02554 -114.05787 449.01659 -118.63282 C 446.69339 -123.92337 445.01354 -128.74665 444.04588 -132.9043 C 443.15924 -136.7153 442.49213 -153.25591 443.12401 -155.77345 C 443.49612 -157.2561 444.09171 -158.03168 444.84471 -158.13087 z M 496.99705 -157.10938 C 499.03125 -157.16008 501.20527 -156.65523 503.1494 -155.5879 C 507.54005 -153.17744 513.15135 -147.68141 513.15135 -145.79102 C 513.15135 -144.88116 511.84166 -142.64341 510.23924 -140.81837 C 507.36753 -137.54763 505.64159 -136.6393 505.64159 -138.39845 C 505.64159 -138.89282 503.42445 -140.8868 500.71385 -142.82813 C 498.00324 -144.76946 494.36463 -147.95461 492.62791 -149.90626 L 489.46971 -153.45509 L 491.68846 -155.30274 C 493.06905 -156.45286 494.96286 -157.05874 496.99705 -157.10938 z M 201.40526 -155.0586 C 203.34914 -155.17874 204.98972 -155.0231 206.22948 -154.56446 L 208.49119 -153.72852 L 205.6826 -152.27735 C 204.13845 -151.47883 200.13551 -150.32192 196.78612 -149.70704 C 185.33188 -147.60429 178.02244 -144.62795 178.02244 -142.06641 C 178.02244 -140.3323 183.15136 -140.19926 189.78612 -141.76173 C 197.24969 -143.51937 198.89548 -143.23107 196.66112 -140.55665 C 195.90361 -139.64995 194.77515 -137.71996 194.15526 -136.26759 C 193.20679 -134.04537 192.55537 -133.67269 190.04002 -133.91993 C 187.31608 -134.18769 186.92632 -133.88093 185.65526 -130.45899 C 183.84342 -125.58122 183.95921 -125.66984 181.85057 -127.57813 C 179.6537 -129.56627 178.58813 -129.28011 167.72362 -123.80079 C 163.27505 -121.55724 157.96364 -118.0276 155.92088 -115.95509 C 151.62824 -111.59994 150.48226 -111.20025 151.73534 -114.4961 C 153.88571 -120.152 156.52649 -123.23177 166.52244 -131.74805 C 172.60021 -136.92613 173.12967 -138.46316 168.81541 -138.40626 C 165.03041 -138.35646 162.56737 -136.6212 157.62401 -130.51954 C 151.84327 -123.38429 149.18899 -121.48976 144.64549 -121.25977 C 141.14985 -121.08282 140.9517 -121.21597 141.11815 -123.6504 C 141.3383 -126.86982 147.5594 -135.90576 150.92284 -137.89259 C 152.30554 -138.70937 154.88936 -139.37696 156.66502 -139.37696 C 161.10776 -139.37696 169.42401 -142.37771 178.4326 -147.22852 C 187.01988 -151.85247 195.57362 -154.69818 201.40526 -155.0586 z M 357.58299 -139.02149 C 357.48429 -138.92279 357.41809 -138.59562 357.39549 -138.04884 C 357.35479 -137.05924 357.57768 -136.50445 357.88963 -136.81641 C 358.20158 -137.12834 358.23305 -137.93759 357.9619 -138.61524 C 357.81205 -138.98966 357.68167 -139.12019 357.58299 -139.02149 z M 516.54588 -136.54102 C 518.8266 -136.56502 528.17088 -129.31798 528.17088 -127.5254 C 528.17088 -126.86852 526.75896 -125.25455 525.03221 -123.93751 C 520.82685 -120.72989 519.58295 -120.89786 515.68455 -125.2129 C 510.26094 -131.21616 509.71278 -132.79252 512.3369 -134.81055 C 513.5599 -135.75107 515.45366 -136.52932 516.54588 -136.54102 z M 247.86034 -128.82813 C 247.39413 -128.90813 247.04703 -128.88967 246.8369 -128.75977 C 246.40648 -128.49384 246.20546 -126.44418 246.38963 -124.20509 C 246.7077 -120.33859 247.09075 -119.86376 254.01268 -114.74805 C 262.87709 -108.19673 274.21533 -101.81541 285.50877 -97.021492 C 295.87036 -92.623134 297.06241 -92.494321 294.53416 -96.044929 C 288.81369 -104.0786 254.85344 -127.62787 247.86034 -128.82813 z M 403.53416 -124.81055 C 402.9859 -124.8111 402.68873 -123.3821 402.47557 -120.31251 C 402.23886 -116.90399 402.31803 -116.79381 404.18065 -117.95704 C 406.43686 -119.36606 406.54198 -120.22035 404.82909 -123.31055 C 404.28385 -124.29421 403.86312 -124.81023 403.53416 -124.81055 z M 530.19237 -120.20313 C 535.20447 -120.22203 542.20738 -117.7162 545.37205 -114.2168 C 546.92924 -112.49476 546.97299 -111.85379 545.86229 -107.07618 C 545.01226 -103.42004 544.20755 -101.86487 543.2119 -101.94727 C 533.01094 -102.79199 520.2409 -115.69997 526.05955 -119.28516 C 527.07202 -119.90901 528.52167 -120.19684 530.19237 -120.20313 z M 617.09666 -118.60157 C 618.27828 -118.63437 618.35811 -117.78886 617.39549 -115.99024 L 617.39354 -115.99024 C 616.81722 -114.91341 615.72793 -114.03126 614.97166 -114.03126 C 612.8564 -114.03126 613.33391 -117.57786 615.54393 -118.2793 C 616.18491 -118.48274 616.70279 -118.59065 617.09666 -118.60157 z M 136.57518 -115.6211 C 137.23207 -115.5621 137.99009 -115.05513 138.88182 -114.16407 C 140.64832 -112.39889 140.94237 -111.07016 140.94237 -104.85548 L 140.94237 -97.603523 L 137.04002 -97.32032 C 132.44819 -96.985725 131.92098 -97.570945 132.4658 -102.41602 C 133.53821 -111.95287 134.60451 -115.79822 136.57518 -115.6211 z M 553.97557 -108.37305 C 555.21156 -108.1481 556.66178 -107.22873 558.46385 -105.64649 C 561.58181 -102.90885 566.65916 -93.89171 566.65916 -91.091804 C 566.65916 -88.908754 564.23085 -89.306424 555.43846 -92.927742 C 551.07393 -94.725365 547.3787 -96.19532 547.22557 -96.19532 C 546.44172 -96.19532 547.15937 -99.275593 548.94823 -103.58009 C 550.45086 -107.19585 551.91559 -108.74798 553.97557 -108.37305 z M 605.74119 -107.29298 C 609.73745 -106.82124 609.46012 -104.85642 604.76268 -100.35548 C 602.37529 -98.067932 599.86969 -96.19532 599.19432 -96.19532 C 597.42469 -96.19532 593.57211 -100.56747 594.30174 -101.74805 C 595.61674 -103.87573 603.26903 -107.58481 605.74119 -107.29298 z M 371.18065 -106.24024 C 371.98807 -106.04217 372.38901 -103.78356 371.95994 -100.13282 C 371.22737 -93.899824 368.63342 -87.710605 365.4033 -84.480476 C 362.63078 -81.707958 361.49569 -81.53199 360.28612 -83.693367 C 359.15257 -85.718909 361.47476 -93.817422 363.95213 -96.47657 C 364.94007 -97.53699 365.99311 -99.175597 366.29198 -100.1172 C 366.59083 -101.05879 367.16094 -101.82813 367.55955 -101.82813 C 367.95818 -101.82813 368.77654 -102.90865 369.37791 -104.22852 C 370.06522 -105.737 370.6962 -106.35909 371.18065 -106.24024 z M 224.19237 -103.54493 C 220.68147 -104.04322 209.70323 -100.16434 206.6533 -97.347664 C 203.36339 -94.309354 201.31488 -90.236399 202.07713 -88.250008 C 202.49544 -87.159911 203.575 -87.642739 206.98143 -90.44532 C 209.38324 -92.421361 214.72578 -96.107071 218.85448 -98.636726 C 224.94654 -102.36935 225.95271 -103.2951 224.19237 -103.54493 z M 571.47948 -98.884773 C 572.40716 -98.78334 573.75902 -98.116376 575.75877 -96.978523 C 582.58591 -93.093831 586.87591 -87.748054 583.16502 -87.748054 C 582.43281 -87.74806 581.27061 -87.586534 580.58299 -87.390633 C 579.23555 -87.006742 570.99444 -88.217218 569.75877 -88.980476 C 569.34452 -89.235701 569.15209 -91.59756 569.33104 -94.228523 C 569.56374 -97.650647 569.93334 -99.053829 571.47948 -98.884773 z M 589.54979 -98.074226 C 590.87482 -98.074226 591.97891 -97.40262 592.25877 -96.429695 C 592.51857 -95.526161 593.03524 -94.048073 593.40721 -93.144539 C 594.6477 -90.131387 590.34858 -91.17061 588.7451 -94.271492 C 586.87425 -97.889296 586.9127 -98.074226 589.54979 -98.074226 z M 167.7783 -97.144539 C 165.91606 -97.158609 164.17236 -97.034128 162.67869 -96.753914 C 159.48992 -96.155698 153.61619 -92.177259 153.61619 -90.615242 C 153.61619 -90.219066 156.89023 -89.610895 160.89159 -89.263679 C 164.89296 -88.916441 173.02439 -87.625809 178.9619 -86.396492 C 184.89941 -85.167181 190.47164 -84.122529 191.34471 -84.076179 C 196.37786 -83.807535 191.74704 -90.079413 184.17674 -93.783211 C 180.01759 -95.81809 173.36504 -97.102341 167.7783 -97.144539 z M 140.41698 -90.562508 C 140.90282 -90.562508 141.56271 -90.141313 141.88182 -89.625008 C 142.20092 -89.108701 141.80392 -88.685554 140.99901 -88.685554 C 140.19408 -88.685554 139.53416 -89.1087 139.53416 -89.625008 C 139.53416 -90.141312 139.93113 -90.562508 140.41698 -90.562508 z M 419.35838 -88.441414 C 419.32068 -88.384704 419.7569 -88.031038 420.63182 -87.330086 C 422.54708 -85.795627 423.03221 -85.588309 423.03221 -86.306648 C 423.03221 -86.546636 422.08257 -87.202684 420.92088 -87.765633 C 419.90675 -88.257082 419.39607 -88.498122 419.35838 -88.441414 z M 159.39354 -85.000008 C 155.83598 -84.960428 151.58899 -84.200588 148.83494 -82.748054 C 142.9903 -79.665483 140.34056 -75.435471 140.7783 -69.884773 C 140.96837 -67.474607 141.44521 -64.985376 141.8369 -64.35157 C 142.36571 -63.495946 143.06679 -63.683092 144.56151 -65.082039 C 145.66873 -66.11831 149.32076 -68.313421 152.67674 -69.958992 C 163.387 -75.210661 164.55795 -77.640364 155.95018 -76.751961 C 149.46539 -76.082671 148.82795 -77.989491 155.25877 -78.82032 C 160.24901 -79.465033 165.81932 -81.636824 165.81932 -82.937508 C 165.81932 -84.359401 162.9511 -85.039592 159.39354 -85.000008 z M 179.50291 -82.468758 C 177.38677 -82.69118 175.45144 -82.367703 173.50487 -81.517586 L 170.04393 -80.005867 L 173.32909 -79.095711 L 176.61424 -78.183601 L 174.07127 -76.154304 C 171.26216 -73.913504 171.61494 -72.41305 175.20604 -71.339851 C 176.4968 -70.954106 178.60864 -69.694602 179.8994 -68.541023 C 181.19017 -67.387445 183.2908 -65.746227 184.56737 -64.892586 C 189.80935 -61.387279 191.40263 -63.837617 186.95018 -68.558601 C 182.8305 -72.926737 182.73334 -74.201509 186.70604 -71.779304 C 190.30603 -69.584361 194.92088 -69.285871 194.92088 -71.248054 C 194.92088 -73.361961 190.31226 -78.281188 186.58885 -80.142586 C 183.91738 -81.478091 181.61905 -82.246335 179.50291 -82.468758 z M 120.25877 -81.681648 C 120.08899 -81.744898 119.96971 -81.206361 119.96971 -80.238289 C 119.96971 -78.947526 120.18193 -78.41908 120.44237 -79.064461 C 120.70281 -79.709843 120.70281 -80.764783 120.44237 -81.410164 C 120.37727 -81.571509 120.31537 -81.660563 120.25877 -81.681648 z M 293.12596 -79.269539 C 282.50921 -79.299199 270.68122 -77.689266 271.52244 -76.328133 C 272.17637 -75.270088 276.76457 -75.33997 289.67674 -76.609383 C 304.26345 -78.043426 305.8072 -79.234339 293.12596 -79.269539 z M 358.25096 -64.279304 C 359.12865 -64.279304 360.6057 -63.440016 361.53416 -62.41407 C 362.46263 -61.388125 364.64093 -60.034899 366.37401 -59.408211 C 370.08929 -58.064749 370.18757 -57.232759 367.61034 -48.888679 C 365.70171 -42.709244 363.93236 -40.788546 363.84666 -44.800789 C 363.82186 -45.962476 363.08262 -48.390204 362.20213 -50.197273 C 360.19683 -54.312871 356.7483 -54.973283 352.73729 -52.00782 C 349.77341 -49.816515 346.9951 -50.089748 346.9951 -52.572273 C 346.9951 -54.6237 356.27873 -64.279304 358.25096 -64.279304 z M 178.5244 -64.089851 C 177.92684 -64.687403 175.9709 -62.620216 172.71385 -57.949226 C 171.90657 -56.791529 171.48938 -55.208142 171.78807 -54.429695 C 172.08679 -53.651253 172.58094 -53.013679 172.88573 -53.013679 C 173.19071 -53.013679 173.17946 -53.436825 172.86034 -53.953133 C 172.54124 -54.469438 172.86334 -54.890633 173.57713 -54.890633 C 175.0548 -54.890633 179.48529 -63.128959 178.5244 -64.089851 z M 151.29393 -61.474617 C 150.97674 -61.365576 150.79979 -61.035343 150.79979 -60.462898 C 150.79979 -58.553754 152.75032 -55.830086 154.11815 -55.830086 C 154.87444 -55.830086 155.49315 -55.506116 155.49315 -55.109383 C 155.49315 -54.71266 156.65534 -53.667423 158.07518 -52.787117 C 160.59732 -51.223387 163.57031 -50.429429 161.56346 -51.855476 C 161.02965 -52.234802 158.97202 -54.551464 156.99119 -57.003914 C 154.46384 -60.133001 152.24551 -61.80174 151.29393 -61.474617 z M 519.0908 -56.769539 C 520.35229 -56.769539 524.41698 -52.960822 524.41698 -51.779304 C 524.41698 -50.376561 521.81548 -51.25448 519.88573 -53.308601 C 517.5417 -55.803663 517.32128 -56.769539 519.0908 -56.769539 z M 198.91112 -55.662117 C 198.35677 -55.806963 197.39614 -55.714737 195.77244 -55.455086 C 191.42816 -54.760403 185.54163 -52.000372 183.71776 -49.802742 C 183.04642 -48.993827 180.20761 -47.022991 177.40916 -45.421883 C 173.09671 -42.954548 172.41599 -42.201138 172.94432 -40.486336 C 173.92591 -37.300222 176.30749 -32.896399 177.45018 -32.154304 C 178.13888 -31.707042 178.58909 -32.72629 178.7783 -35.158211 C 178.99966 -38.003504 179.53329 -38.977553 181.12596 -39.447273 C 182.25922 -39.781511 186.04655 -41.758261 189.54393 -43.839851 C 195.97905 -47.669939 199.61424 -51.500459 199.61424 -54.453133 C 199.61424 -55.137038 199.46547 -55.517271 198.91112 -55.662117 z M 216.86619 -53.505867 C 216.23556 -53.603787 215.30157 -52.518385 214.28612 -50.216804 C 213.21816 -47.796207 210.63649 -44.921277 207.06346 -42.171883 C 201.03486 -37.532998 198.84329 -34.668665 200.79393 -33.97657 C 202.11507 -33.507824 210.45134 -37.417853 213.0869 -39.742195 C 215.62903 -41.984139 217.28771 -45.622891 217.62401 -49.699226 C 217.82435 -52.127372 217.49683 -53.407948 216.86619 -53.505867 z M 237.64159 -51.634773 C 239.67086 -52.033119 239.0918 -46.342349 236.26268 -42.921883 C 234.18592 -40.411026 232.63472 -40.224258 231.80565 -42.384773 C 231.40928 -43.4177 231.90395 -44.427213 233.24315 -45.316414 C 234.36621 -46.062099 235.28612 -47.413905 235.28612 -48.32032 C 235.28612 -49.226741 235.88185 -50.461821 236.61034 -51.066414 C 237.00771 -51.396207 237.35169 -51.577867 237.64159 -51.634773 z M 343.94823 -51.53907 C 344.77253 -51.680378 345.25189 -51.405332 345.86424 -50.792976 C 347.99311 -48.664108 346.64464 -46.820546 341.73729 -45.148445 C 335.56425 -43.045082 332.91502 -43.151275 332.91502 -45.503914 C 332.91502 -46.536525 333.48504 -47.380867 334.1826 -47.380867 C 334.88016 -47.380867 337.48187 -48.461569 339.96385 -49.781258 C 341.9549 -50.839905 343.12393 -51.397762 343.94823 -51.53907 z M 190.52635 -49.894539 C 191.10775 -49.901259 191.48445 -49.742059 191.43065 -49.273445 C 191.32313 -48.336216 189.49623 -46.157307 188.02049 -44.941414 C 186.54475 -43.725524 185.41986 -43.472893 184.25682 -43.660164 C 183.09378 -43.847434 181.89389 -44.474404 181.83299 -45.308601 C 181.77207 -46.142798 182.8515 -47.185587 184.12205 -47.935554 C 185.39261 -48.685522 186.85491 -49.143691 188.39159 -49.525398 C 189.15992 -49.716252 189.94496 -49.887839 190.52635 -49.894539 z M 291.44237 -49.867195 C 286.25486 -50.037829 280.19796 -49.664327 274.36229 -48.708992 C 262.82458 -46.820201 261.25575 -45.595899 271.00487 -46.089851 C 275.36779 -46.310912 282.94958 -45.928161 287.85448 -45.238289 C 299.87537 -43.547572 307.8155 -43.35124 307.34666 -44.75782 C 307.14672 -45.357655 305.32934 -46.706676 303.3076 -47.755867 C 300.94722 -48.980795 296.62987 -49.696561 291.44237 -49.867195 z M 356.61034 -47.380867 C 360.62737 -47.380867 360.48345 -47.77649 358.63182 -41.792976 C 358.10851 -40.1019 358.2868 -40.044522 360.94237 -41.046883 C 362.52538 -41.644447 364.07972 -41.874369 364.39549 -41.558601 C 365.28388 -40.67021 360.27108 -30.720853 355.33494 -23.574226 C 352.88861 -20.032396 347.1948 -12.957852 342.68065 -7.85157 C 333.77384 2.2235871 333.69473 2.2604483 324.54002 0.60546125 C 320.58462 -0.10959805 320.09759 -1.3097776 322.6494 -4.0488356 C 324.75486 -6.3087799 331.97557 -20.154438 331.97557 -21.931648 C 331.97557 -22.519004 332.34692 -23.732385 332.80174 -24.628914 C 333.25653 -25.525443 334.56814 -28.294122 335.7158 -30.781258 C 336.96043 -33.478512 338.27411 -35.123134 338.97166 -34.855476 C 340.64774 -34.212301 348.87205 -36.10237 348.87205 -37.130867 C 348.87205 -37.605358 347.49926 -38.00022 345.82127 -38.00782 C 344.14328 -38.01572 342.13675 -38.450684 341.36229 -38.974617 C 340.18873 -39.768594 340.5466 -40.452809 343.50291 -43.074226 C 347.20676 -46.358508 350.32137 -47.380867 356.61034 -47.380867 z M 322.0576 -47.251961 C 322.43057 -47.319574 322.84926 -47.30791 323.33299 -47.224617 C 323.97797 -47.113559 324.73832 -46.874291 325.66112 -46.523445 C 328.9565 -45.270543 328.14572 -40.457975 324.37596 -38.896492 C 321.61757 -37.753932 320.78628 -35.858184 319.34862 -27.433601 C 318.7008 -23.63745 317.42169 -22.840535 316.52244 -25.673836 C 315.76095 -28.07306 317.69352 -40.571243 319.40721 -44.330086 C 320.23061 -46.136143 320.93869 -47.049119 322.0576 -47.251961 z M 146.47166 -47.099617 C 147.43279 -47.093537 148.36859 -47.014225 149.26659 -46.804695 C 150.70338 -46.469447 152.04375 -45.798564 152.23534 -44.984383 C 152.42692 -44.1702 151.46867 -43.212383 150.41502 -42.685554 C 149.36137 -42.158722 148.21246 -42.062869 146.44041 -42.781258 C 144.66837 -43.499645 142.27277 -45.032471 141.88963 -45.894539 C 141.50649 -46.756607 143.13533 -46.949139 144.7158 -47.044929 C 145.30848 -47.080849 145.89499 -47.103217 146.47166 -47.099617 z M 334.29979 -40.810554 C 336.11964 -40.810554 337.60838 -40.592118 337.60838 -40.324226 C 337.60838 -39.358026 332.11386 -29.566705 329.49315 -25.863289 C 326.74851 -21.984722 326.18035 -21.572578 325.0908 -22.662117 C 323.90016 -23.85277 324.47553 -26.781734 326.76659 -31.205086 C 328.0319 -33.648031 329.49932 -36.808684 330.0283 -38.228523 C 330.82782 -40.374534 331.54916 -40.810554 334.29979 -40.810554 z M 506.33494 -39.603523 C 509.04239 -39.48427 511.86541 -36.725979 513.19627 -32.693367 C 513.76761 -30.962219 514.7694 -29.544929 515.42088 -29.544929 C 516.07236 -29.544929 518.19167 -31.258708 520.12987 -33.353523 C 525.10377 -38.729322 527.11606 -38.201424 529.28026 -30.953133 C 531.52977 -23.419383 531.48987 -21.097664 529.11034 -21.097664 C 526.64094 -21.097664 526.45742 -16.010221 528.87596 -14.60157 C 530.19764 -13.831765 530.24322 -13.617887 529.11034 -13.50782 C 528.33589 -13.43255 527.27899 -13.272333 526.76268 -13.152351 C 526.24638 -13.032427 523.78748 -12.869643 521.29784 -12.791023 L 516.77244 -12.648445 L 517.4033 -7.5996169 C 518.01899 -2.6716828 517.3403 -0.85392051 515.37205 -2.1503981 C 513.53518 -3.3603184 511.19341 -12.871881 510.9951 -19.923836 C 510.977 -20.569217 510.60875 -21.097664 510.17869 -21.097664 C 509.74846 -21.097664 509.39744 -22.65852 509.39744 -24.566414 C 509.39744 -26.99661 508.6868 -28.774706 507.02635 -30.50782 C 505.7228 -31.868442 504.47859 -33.899479 504.26268 -35.021492 C 504.0466 -36.143506 503.61816 -37.471479 503.30955 -37.970711 C 503.00106 -38.469937 503.84605 -39.153822 505.18651 -39.490242 C 505.56381 -39.584942 505.94817 -39.620559 506.33494 -39.603523 z M 283.9326 -36.576179 C 267.19237 -36.585479 264.43438 -35.961732 275.65135 -34.701179 C 279.00734 -34.324041 287.24407 -33.044624 293.95604 -31.859383 C 300.66801 -30.674146 306.9152 -29.669008 307.8369 -29.625008 C 310.57386 -29.49467 308.19655 -32.778406 304.08104 -34.812508 C 301.01791 -36.326491 298.24105 -36.567979 283.9326 -36.576179 z M 354.35448 -34.781258 C 353.67286 -34.955341 350.81892 -32.2718 348.76659 -29.392586 C 347.11359 -27.07362 347.10451 -26.910171 348.63377 -27.126961 C 350.26517 -27.35826 354.50487 -32.700096 354.50487 -34.523445 C 354.50487 -34.672665 354.45187 -34.756388 354.35448 -34.781258 z M 148.74315 -31.160164 C 148.0783 -30.925936 147.50384 -29.785282 147.48534 -28.054695 C 147.46124 -25.795454 147.01749 -25.27066 144.93065 -25.027351 C 142.91756 -24.792638 142.21067 -24.030715 141.44432 -21.271492 C 140.91568 -19.368174 140.49527 -15.698721 140.50877 -13.117195 C 140.53057 -8.9550707 140.67798 -8.6147544 141.81151 -10.109383 C 143.02111 -11.704326 143.33278 -11.640871 147.59862 -8.9355544 C 152.83585 -5.614192 152.67674 -5.6607355 152.67674 -7.4785231 C 152.67674 -8.2489151 151.09816 -9.6209007 149.16893 -10.529304 C 145.56122 -12.228042 143.20949 -16.499292 146.71385 -14.988289 C 149.7941 -13.660147 154.55369 -13.31808 154.55369 -14.423836 C 154.55369 -14.996612 153.72998 -15.464851 152.72166 -15.464851 C 150.38379 -15.464851 146.10643 -17.394614 146.10643 -18.449226 C 146.10643 -18.892157 147.1732 -21.294606 148.47752 -23.78907 C 149.848 -26.410035 150.59156 -28.995915 150.23924 -29.91407 C 150.00649 -30.520603 149.72017 -30.900281 149.42088 -31.080086 C 149.19642 -31.214939 148.96476 -31.23824 148.74315 -31.160164 z M 219.7119 -29.589851 C 221.59887 -29.482281 222.2354 -25.04866 220.50682 -19.455086 C 219.66917 -16.744483 218.68981 -14.525398 218.33104 -14.525398 C 217.17337 -14.525398 215.76005 -16.809324 215.42674 -19.218758 C 215.20187 -20.844334 214.59786 -21.482056 213.45994 -21.291023 C 212.55641 -21.139312 211.83026 -21.560506 211.84666 -22.228523 C 211.88616 -23.837354 214.12098 -26.728523 215.32518 -26.728523 C 215.85043 -26.728523 216.80743 -27.362268 217.45018 -28.136726 C 218.31568 -29.179606 219.08291 -29.625708 219.7119 -29.589851 z M 115.65916 -29.544929 C 116.65903 -29.544929 116.95633 -28.994303 116.58494 -27.824226 C 116.28436 -26.877199 115.84524 -22.627747 115.60838 -18.38282 C 115.19239 -10.927202 115.92699 -7.6508447 118.41307 -5.8769606 C 118.92938 -5.5085592 119.35252 -4.6642166 119.35252 -4.0000075 C 119.35252 -3.3357925 121.55012 -1.7360831 124.23729 -0.44532 C 126.92445 0.84544312 129.14152 2.2602174 129.16502 2.6972581 C 129.27638 4.773697 110.56406 0.69485696 107.65135 -1.992195 C 106.71292 -2.8579216 106.63877 -3.2617262 107.41698 -3.2617263 C 108.04392 -3.2617262 108.55565 -3.6698173 108.55565 -4.1699294 C 108.55565 -5.8424826 106.12857 -4.1716494 104.46385 -1.3535231 C 103.55845 0.17919939 102.23288 1.4335863 101.51854 1.4335862 C 100.45806 1.4335863 100.10362 4.7515077 100.93846 6.86718 C 100.99736 7.0163687 101.9706 6.2773249 103.10057 5.2246019 C 104.68054 3.752645 106.41751 3.3105394 110.62205 3.3105394 C 115.51009 3.3105394 127.54691 5.9265839 130.20018 7.5663987 C 131.32968 8.2644669 118.22289 21.028745 116.30174 21.101555 C 115.65636 21.126015 115.12791 20.483207 115.12791 19.671867 C 115.12791 18.330812 114.99241 18.330812 113.65135 19.671867 C 111.06905 22.254176 101.84659 21.198874 99.655257 18.070305 C 97.514902 15.014528 99.295201 14.26179 104.79979 15.896477 C 107.50923 16.701104 110.11707 17.117491 110.59471 16.822258 C 112.19418 15.833727 109.45448 13.794179 105.66698 13.154289 C 103.62125 12.808664 101.37364 11.950801 100.67088 11.248039 C 99.968118 10.545071 99.158855 10.203426 98.874007 10.488274 C 98.589183 10.773122 96.619328 10.712399 94.495101 10.353508 L 90.63182 9.7011644 L 91.229476 5.3320237 C 92.687158 -5.3414315 92.298022 -4.731984 98.13182 -5.5058669 C 100.6829 -5.8442815 104.06593 -6.5730302 105.6494 -7.1250075 C 108.1647 -8.0018463 108.4007 -8.3680817 107.51268 -10.027351 C 106.62681 -11.682602 105.90483 -11.848501 101.89354 -11.316414 C 96.536887 -10.605831 96.306155 -11.124872 99.637679 -16.402351 C 100.92844 -18.447049 101.99196 -20.446261 102.00096 -20.843758 C 102.00996 -21.241249 103.05876 -22.553092 104.33104 -23.759773 L 106.64354 -25.955086 L 109.23729 -23.91407 L 111.82909 -21.875008 L 112.9658 -24.537117 C 113.59134 -26.001007 114.12199 -27.727673 114.14549 -28.373054 C 114.16879 -29.018436 114.84991 -29.544929 115.65916 -29.544929 z M 520.52635 -28.591804 C 518.69399 -28.608864 513.15135 -23.65957 513.15135 -22.005867 C 513.15135 -19.968075 519.87651 -21.749289 522.38182 -24.451179 C 524.23806 -26.453018 524.42786 -27.08456 523.37401 -27.751961 C 522.65722 -28.205893 521.37526 -28.584204 520.52635 -28.591804 z M 129.3994 -16.355476 C 129.28426 -16.337836 129.22862 -16.13575 129.22362 -15.746101 C 129.21562 -15.126376 129.94704 -14.188397 130.85057 -13.662117 C 131.75411 -13.135867 132.91629 -12.705086 133.4326 -12.705086 C 133.94891 -12.705086 133.5258 -13.184002 132.49315 -13.769539 C 131.46054 -14.355093 130.30605 -15.293097 129.92674 -15.853523 C 129.68825 -16.205878 129.51454 -16.373112 129.3994 -16.355476 z M 210.47362 -13.587898 C 211.45208 -13.587898 211.84663 -12.902688 211.64744 -11.548836 C 211.20521 -8.5434513 209.00096 -8.2213247 209.00096 -11.162117 C 209.00096 -12.739676 209.51514 -13.587898 210.47362 -13.587898 z M 522.61229 -7.9550856 L 528.61619 -7.9550856 C 535.74138 -7.9550856 539.05669 -6.8745865 539.87791 -4.2871169 C 540.35385 -2.7876315 541.19278 -2.4332753 543.87791 -2.5918044 C 547.00755 -2.7765537 547.50005 -2.429283 550.1494 1.8105394 C 552.54401 5.6426978 553.08417 7.5887682 553.37987 13.439446 L 553.73534 20.466789 L 551.38768 19.876946 C 550.09633 19.552835 546.83708 17.805449 544.14549 15.994133 C 541.4539 14.182817 538.82977 12.962014 538.31346 13.281242 C 537.77722 13.612792 537.51497 16.731199 537.70213 20.55468 L 537.70018 20.55468 C 538.00445 26.7805 537.88891 27.267106 536.03807 27.531242 C 533.57688 27.882465 532.82625 25.552752 533.75877 20.453117 C 534.47145 16.55604 533.57448 12.697258 531.95604 12.697258 C 531.42301 12.697258 530.98729 13.331003 530.98729 14.105461 C 530.98729 16.314948 528.05858 15.757193 525.18065 12.999992 C 523.73793 11.617792 522.27037 10.775507 521.91893 11.126946 C 521.56749 11.478392 521.03456 14.616395 520.73534 18.099602 C 520.26961 23.519181 519.92206 24.46345 518.31541 24.656242 C 517.2828 24.780157 515.62856 24.262046 514.64159 23.503899 C 512.94489 22.200333 512.92958 21.934135 514.34666 18.58593 C 516.26872 14.044486 520.43796 1.1929561 521.66307 -3.9648513 L 522.61229 -7.9550856 z M 134.10643 -4.5937575 C 135.0335 -4.5400755 136.24017 -4.3998307 137.77244 -4.1875075 C 144.23144 -3.2924982 147.91847 -1.5742904 145.99705 -0.35742938 C 145.28191 0.095475935 144.27507 0.39422904 143.75877 0.30663312 C 143.24246 0.21903722 140.60621 -0.007765625 137.8994 -0.19727313 C 134.26815 -0.45148305 132.7279 -1.0072461 132.0283 -2.3144606 C 131.05501 -4.1330769 131.32523 -4.7548024 134.10643 -4.5937575 z M 172.38963 -1.7168044 C 174.713 -1.6703604 178.51548 -1.1044784 180.83885 -0.460945 C 183.16222 0.18259429 186.43625 0.7339351 188.11424 0.7656175 C 190.3704 0.8079135 191.16502 1.2499119 191.16502 2.4628831 C 191.16502 5.0413701 185.34967 12.006524 181.26463 14.320305 C 177.02989 16.718889 173.87694 16.948842 170.54393 15.103508 C 169.26976 14.398042 166.94538 14.010078 165.37987 14.24218 C 161.35003 14.839704 156.71765 11.663304 154.54588 6.8124925 C 153.56865 4.6294601 153.11296 2.499317 153.53416 2.0781175 C 154.79259 0.81969387 167.84475 -1.8076274 172.38963 -1.7168044 z M 283.19041 6.2695237 C 283.52994 6.2914837 283.80847 6.5738601 284.15721 7.1249925 C 284.62625 7.8662484 285.0164 9.2637038 285.0244 10.230461 C 285.0362 11.675042 285.28561 11.782981 286.42674 10.83593 C 287.48116 9.9608572 288.53571 9.9345716 290.8076 10.726555 C 292.45303 11.300152 297.95293 12.04227 303.03026 12.374992 C 310.75199 12.881029 312.26268 13.233274 312.26268 14.533196 C 312.26268 15.387945 313.15338 18.728093 314.24315 21.955071 C 315.33292 25.182049 316.00255 28.043327 315.73143 28.314446 C 315.46034 28.585559 314.35904 28.336086 313.28221 27.759758 C 310.93412 26.5031 310.93121 26.514804 312.29198 38.392571 C 313.4343 48.363546 316.11541 55.196083 319.48729 56.732414 C 322.46817 58.090596 323.06374 57.584035 321.63377 54.912102 C 320.74128 53.244603 320.77341 52.922447 321.79393 53.238274 C 323.81963 53.865238 327.20308 61.644585 327.22948 65.736321 C 327.25888 70.282935 326.22883 72.134642 323.91698 71.689446 C 322.19799 71.358394 321.25913 69.934797 318.28612 63.154289 C 316.63046 59.378255 314.13963 58.409271 314.13963 61.541008 C 314.13963 64.193321 311.35008 65.081009 310.08885 62.830071 C 309.5379 61.846773 308.97807 60.023439 308.84471 58.777336 C 308.71134 57.531233 307.97275 55.879989 307.20213 55.109367 C 305.95978 53.86702 305.73378 53.975354 305.2119 56.05468 C 304.88793 57.344475 304.75827 61.951902 304.92284 66.292961 L 305.22166 74.185539 L 301.69432 74.476555 C 297.51154 74.822526 297.12021 74.149722 297.54393 67.333977 C 297.74056 64.170862 297.39464 61.779987 296.59471 60.763664 C 295.90298 59.884818 295.41267 59.587203 295.50487 60.103508 C 295.59707 60.619813 295.34707 62.205153 294.94823 63.624992 C 294.43404 65.455588 293.61285 66.205071 292.12401 66.205071 C 290.96924 66.205071 289.25968 67.051366 288.32518 68.083977 C 285.61048 71.083687 283.60239 70.438743 282.31932 66.156242 C 280.91309 61.462682 279.06258 60.620492 276.53807 63.52343 L 274.61424 65.736321 L 275.19237 63.388664 C 275.51026 62.097901 276.11266 60.198618 276.53221 59.166008 C 276.95178 58.133397 277.76996 56.106237 278.35057 54.662102 C 278.93119 53.217967 279.40721 51.013921 279.40721 49.765617 C 279.40721 48.456725 280.20144 47.071615 281.28416 46.49218 C 282.60707 45.784185 283.16112 44.526165 283.16112 42.234367 C 283.16112 39.969037 283.58861 38.982414 284.56932 38.982414 C 286.22166 38.982414 286.39331 37.896258 284.9658 36.468742 C 284.40913 35.912071 284.09128 34.243056 284.26073 32.761711 C 284.55725 30.169261 284.94104 29.977123 294.50877 27.599602 C 304.39386 25.143221 308.53442 23.568795 308.47752 22.287102 C 308.46112 21.918038 307.8257 20.792389 307.06541 19.787102 C 305.89713 18.242357 304.3129 17.918045 296.83494 17.691399 C 287.31998 17.403025 285.78829 16.679731 281.99119 10.671867 C 280.57544 8.4318599 280.56335 8.0529576 281.86034 6.976555 C 282.45119 6.486197 282.85089 6.247564 283.19041 6.2695237 z M 119.67479 10.332024 C 119.01754 9.9256334 116.34136 13.170742 115.57518 15.58593 C 114.92596 17.632429 115.10186 17.563824 117.3369 14.908196 C 118.70323 13.28475 119.82127 11.410384 119.82127 10.74218 C 119.82127 10.52199 119.76867 10.390079 119.67479 10.332024 z M 92.124007 14.656242 C 94.16875 14.606822 95.069153 16.133908 95.452132 19.464836 C 95.731605 21.895583 96.251117 24.174036 96.606429 24.529289 C 96.961712 24.884571 99.444216 25.521993 102.12205 25.945305 C 104.7999 26.368617 107.31517 27.046333 107.7119 27.451164 C 108.10863 27.855959 107.6306 29.876172 106.6494 31.941399 C 104.67481 36.09748 104.30123 38.982414 105.73924 38.982414 C 106.25555 38.982414 106.67869 38.138072 106.67869 37.105461 C 106.67869 35.056674 109.08079 34.506206 109.75682 36.400383 C 109.98716 37.045764 109.58893 38.736405 108.87205 40.156242 C 107.35182 43.167196 104.83841 43.551026 104.13963 40.878899 C 103.8481 39.764091 101.5349 38.027141 98.360335 36.539055 C 91.833209 33.479454 92.235607 33.904507 93.68846 31.578117 C 94.727976 29.913562 94.661626 29.379371 93.245101 27.966789 C 91.976874 26.702117 90.143865 26.330057 85.518539 26.396477 C 79.909076 26.477037 79.456039 26.331697 79.456039 24.46093 C 79.456039 21.84822 82.308773 18.829072 87.073226 16.39843 C 89.25841 15.283633 90.897162 14.685896 92.124007 14.656242 z M 87.821273 31.472649 C 90.007761 31.472649 90.329435 32.425429 88.69432 34.060539 C 87.875445 34.879363 87.873812 35.468033 88.686507 36.447258 C 89.279727 37.162024 89.514431 37.998241 89.207992 38.30468 C 88.731976 38.78069 91.933243 39.541611 97.291976 40.226555 C 98.939341 40.437114 99.791944 46.938191 98.399398 48.669914 C 97.909395 49.27926 97.21838 51.132343 96.864242 52.789055 C 96.096942 56.378785 92.447682 63.902793 89.950179 67.042961 C 88.044056 69.439603 85.364652 69.397213 81.96971 66.914055 C 79.803921 65.329936 80.537782 61.882083 83.786117 58.378899 C 86.02562 55.963693 89.287393 48.501269 88.463851 47.677727 C 86.838622 46.052497 81.07641 52.647849 77.608382 60.103508 C 76.407573 62.685035 74.138068 66.169657 72.56346 67.847649 C 70.988858 69.525641 69.043445 70.872696 68.241195 70.839836 C 67.112064 70.793366 62.183782 68.816941 59.911117 67.499992 C 59.74624 67.404453 60.515806 65.343979 61.620101 62.919914 C 63.538715 58.708336 63.596935 55.878899 61.764632 55.878899 C 60.42076 55.878899 58.466531 58.612063 56.809554 62.812492 C 55.532626 66.049502 54.811122 66.722206 52.35057 66.968742 C 49.758001 67.228532 49.415023 66.985142 49.415023 64.886711 C 49.415023 62.823578 49.137699 62.610419 47.303695 63.269524 C 46.142008 63.68701 44.774308 64.941842 44.264632 66.056633 C 42.967597 68.893666 41.905257 68.57933 41.905257 65.359367 C 41.905257 62.557286 44.241009 60.187552 57.872054 49.150383 C 67.021429 41.742054 84.419062 31.472649 87.821273 31.472649 z " />
  </g>
</svg>
